<?xml version="1.0" encoding="UTF-8" standalone="no"?>
<svg
   xmlns:dc="http://purl.org/dc/elements/1.1/"
   xmlns:cc="http://creativecommons.org/ns#"
   xmlns:rdf="http://www.w3.org/1999/02/22-rdf-syntax-ns#"
   xmlns:svg="http://www.w3.org/2000/svg"
   xmlns="http://www.w3.org/2000/svg"
   xmlns:sodipodi="http://sodipodi.sourceforge.net/DTD/sodipodi-0.dtd"
   xmlns:inkscape="http://www.inkscape.org/namespaces/inkscape"
   viewBox="0 0 830.16205 543.49024"
   height="543.49023"
   width="830.16205"
   version="1.1"
   id="svg3684"
   sodipodi:docname="logoblob.svg"
   inkscape:version="0.92.1 r15371">
  <sodipodi:namedview
     pagecolor="#ffffff"
     bordercolor="#666666"
     borderopacity="1"
     objecttolerance="10"
     gridtolerance="10"
     guidetolerance="10"
     inkscape:pageopacity="0"
     inkscape:pageshadow="2"
     inkscape:window-width="1920"
     inkscape:window-height="1017"
     id="namedview3686"
     showgrid="false"
     inkscape:zoom="1.3965661"
     inkscape:cx="378.68431"
     inkscape:cy="264.64636"
     inkscape:window-x="-8"
     inkscape:window-y="-8"
     inkscape:window-maximized="1"
     inkscape:current-layer="layer2"
     fit-margin-top="0"
     fit-margin-left="0"
     fit-margin-right="0"
     fit-margin-bottom="0" />
  <metadata
     id="metadata3396">
    <rdf:RDF>
      <cc:Work
         rdf:about="">
        <dc:format>image/svg+xml</dc:format>
        <dc:type
           rdf:resource="http://purl.org/dc/dcmitype/StillImage" />
        <dc:title></dc:title>
      </cc:Work>
    </rdf:RDF>
  </metadata>
  <defs
     id="defs3394">
    <filter
       style="color-interpolation-filters:sRGB"
       id="filter3699"
       inkscape:label="Opacity">
      <feGaussianBlur
         stdDeviation="8.8900000000000006"
         id="feGaussianBlur3701" />
      <feColorMatrix
         id="feColorMatrix3703"
         values="1 0 0 0 0 0 1 0 0 0 0 0 1 0 0 0 0 0 21 -9 "
         result="fbSourceGraphic" />
      <feColorMatrix
         result="fbSourceGraphicAlpha"
         in="fbSourceGraphic"
         values="0 0 0 -1 0 0 0 0 -1 0 0 0 0 -1 0 0 0 0 1 0"
         id="feColorMatrix3729" />
      <feColorMatrix
         id="feColorMatrix3731"
         values="1 0 0 0 0 0 1 0 0 0 0 0 1 0 0 0 0 0 5 -1 "
         result="colormatrix"
         in="fbSourceGraphic" />
      <feComposite
         in2="colormatrix"
         id="feComposite3733"
         operator="arithmetic"
         k2="0.744792"
         result="fbSourceGraphic"
         k1="0"
         k3="0"
         k4="0" />
      <feColorMatrix
         result="fbSourceGraphicAlpha"
         in="fbSourceGraphic"
         values="0 0 0 -1 0 0 0 0 -1 0 0 0 0 -1 0 0 0 0 1 0"
         id="feColorMatrix3735" />
      <feColorMatrix
         id="feColorMatrix3737"
         values="1 0 0 0 0 0 1 0 0 0 0 0 1 0 0 0 0 0 5 -1 "
         result="colormatrix"
         in="fbSourceGraphic" />
      <feComposite
         in2="colormatrix"
         id="feComposite3739"
         operator="arithmetic"
         k2="1"
         result="fbSourceGraphic"
         k1="0"
         k3="0"
         k4="0" />
      <feColorMatrix
         result="fbSourceGraphicAlpha"
         in="fbSourceGraphic"
         values="0 0 0 -1 0 0 0 0 -1 0 0 0 0 -1 0 0 0 0 1 0"
         id="feColorMatrix4521" />
      <feColorMatrix
         id="feColorMatrix4523"
         values="1 0 0 0 0 0 1 0 0 0 0 0 1 0 0 0 0 0 5 -1 "
         result="colormatrix"
         in="fbSourceGraphic" />
      <feComposite
         in2="colormatrix"
         id="feComposite4525"
         operator="arithmetic"
         k2="0.742188"
         result="composite"
         k1="0"
         k3="0"
         k4="0" />
    </filter>
  </defs>
  <g
     inkscape:groupmode="layer"
     id="layer2"
     inkscape:label="filter"
     transform="translate(84.195286,57.315447)">
    <path
       inkscape:connector-curvature="0"
       id="path3692"
       d="m 548.73364,440.63394 c -32.15821,-4.07054 -49.33486,-10.93751 -59.91462,-21.99147 -13.70918,-4.34212 -7.08845,-5.06318 -31.25286,-11.51095 -13.37161,17.73517 -9.10126,13.00735 -21.08246,18.95321 -6.15521,3.0546 -20.19371,4.87162 -26.61147,4.24081 -16.25077,-1.59733 -14.09148,1.15722 -37.73413,-22.14995 -14.23027,1.37721 -26.14369,3.22087 -42.13655,6.84897 -7.83521,9.11673 -15.71169,9.00338 -42.94708,-2.22393 -11.29889,-9.015 -5.41444,-9.07375 -18.09026,5.19076 -3.96863,4.1696 -11.30866,2.15997 -18.02505,2.68659 -10.56361,0.82828 -15.24236,-1.88822 -26.9916,-6.98049 -8.75586,-5.43709 -15.2156,-5.24768 -42.51093,6.17257 -12.62957,0.8182 -23.58759,-4.76419 -28.60755,-13.51664 -12.37488,-13.17994 -7.66161,6.77365 -35.30142,3.03591 -20.026734,14.6179 -34.192292,14.7423 -62.680414,15.03188 -16.968134,0.17249 -18.72354,-1.01808 -26.164215,-4.97885 C 21.868536,415.81495 10.067381,412.33117 6.80997,405.1141 3.366088,397.48388 2.1807,382.62391 3.666322,376.60282 c 1.684937,-6.82864 18.649816,-45.04933 27.904951,-65.01594 6.891695,-14.86784 11.912691,-26.6234 13.037894,-38.5284 2.237779,-23.67639 -7.101607,-37.26941 -33.095441,-58.57427 -14.715037,-12.06061 -21.357072,-26.80087 -26.006364,-65.56922 -1.974578,-16.46514 2.142705,-53.334713 4.128023,-69.979456 8.544039,-71.63252 48.159854,-95.630725 75.114284,-90.22945 21.082715,5.769945 15.118512,-1.553991 33.904341,5.76793 16.24615,-2.021388 16.47986,-1.48901 26.50495,-2.128243 20.43226,-1.302829 26.3253,1.343699 35.89454,10.071899 12.84216,5.237811 20.34427,-5.3089 38.75902,-5.855742 15.07072,-0.16332 31.97295,2.47080999 44.88968,13.3793 13.09943,0.669442 -5.45748,-6.411377 23.56484,-1.795522 2.68683,-2.91249 11.28044,-6.63034 34.32299,-6.18915 22.76311,0.43586 29.05962,-0.01081 35.42866,3.476798 9.52954,8.911079 13.568,0.855974 13.568,0.855974 -7.87647,-7.638838 21.38072,-10.721384 35.50052,-0.190834 7.17521,5.23755 0,0 19.97995,-1.718766 22.8385,0.25112 16.51894,10.708768 36.1711,-2.82073 18.91426,-6.4575 20.12288,16.931328 36.96613,4.233373 5.5806,-5.47453001 17.94522,-3.436974 29.79357,2.870836 9.90127,4.374357 9.24487,-5.12062 21.27352,-7.91547701 13.68319,3.09142401 26.54286,-5.05313599 39.09383,-6.29753199 29.29304,15.099379 18.61633,15.839396 46.58645,-0.444701 9.65912,-1.57011 42.44295,0.222154 46.93179,5.62175399 3.62177,4.35665001 -3.77432,16.16097701 -4.44369,23.80115701 -0.74879,8.54697 -1.88476,23.00601 -10.78894,49.19137 5.21791,31.206422 2.46671,42.210772 8.51723,64.848612 10.03649,28.87942 8.55864,44.77202 8.53523,53.62163 -5.68301,21.63854 -13.3627,32.23049 -12.46635,41.0203 -2.4758,9.94652 1.1688,19.51331 8.40786,30.77692 1.27635,2.11158 5.4878,11.70346 8.03312,23.7284 4.13988,19.5581 7.10857,34.22157 7.10857,54.01708 0,12.17092 -2.0957,40.0369 -2.90681,47.92178 -3.43913,33.43266 -25.37926,38.68929 -56.74282,46.4784 -8.66491,2.15194 -57.33267,7.00235 -68.40331,5.60104 z"
       style="display:inline;fill:#0091ff;fill-opacity:1;stroke:#0000c5;stroke-width:1.14552689;stroke-opacity:1;filter:url(#filter3699)"
       sodipodi:nodetypes="sccccccccsccccscsssssssccsccccscccccccccccccccccssccs" />
  </g>
  <g
     inkscape:groupmode="layer"
     id="layer1"
     inkscape:label="og"
     transform="translate(84.195286,57.315447)" />
</svg>
