<?xml version="1.0" encoding="UTF-8" standalone="no"?>
<!-- Created with Inkscape (http://www.inkscape.org/) -->

<svg
   xmlns:dc="http://purl.org/dc/elements/1.1/"
   xmlns:cc="http://creativecommons.org/ns#"
   xmlns:rdf="http://www.w3.org/1999/02/22-rdf-syntax-ns#"
   xmlns:svg="http://www.w3.org/2000/svg"
   xmlns="http://www.w3.org/2000/svg"
   xmlns:sodipodi="http://sodipodi.sourceforge.net/DTD/sodipodi-0.dtd"
   xmlns:inkscape="http://www.inkscape.org/namespaces/inkscape"
   width="209.75595mm"
   height="121.41823mm"
   viewBox="0 0 209.75595 121.41823"
   version="1.1"
   id="svg8"
   inkscape:version="0.92.1 r15371"
   sodipodi:docname="newlogo.svg">
  <defs
     id="defs2" />
  <sodipodi:namedview
     id="base"
     pagecolor="#ffffff"
     bordercolor="#666666"
     borderopacity="1.0"
     inkscape:pageopacity="0.0"
     inkscape:pageshadow="2"
     inkscape:zoom="1.4"
     inkscape:cx="378.27597"
     inkscape:cy="222.4129"
     inkscape:document-units="mm"
     inkscape:current-layer="layer1"
     showgrid="false"
     fit-margin-top="0"
     fit-margin-left="0"
     fit-margin-right="0"
     fit-margin-bottom="0"
     inkscape:window-width="1920"
     inkscape:window-height="1017"
     inkscape:window-x="-8"
     inkscape:window-y="-8"
     inkscape:window-maximized="1" />
  <metadata
     id="metadata5">
    <rdf:RDF>
      <cc:Work
         rdf:about="">
        <dc:format>image/svg+xml</dc:format>
        <dc:type
           rdf:resource="http://purl.org/dc/dcmitype/StillImage" />
        <dc:title></dc:title>
      </cc:Work>
    </rdf:RDF>
  </metadata>
  <g
     inkscape:label="Layer 1"
     inkscape:groupmode="layer"
     id="layer1"
     transform="translate(-4.2641449,-66.208525)">
    <path
       style="fill:#000000;stroke-width:0.26458332"
       d="m 144.93491,187.37183 c -2.57837,-0.43359 -4.14724,-1.85066 -5.61725,-5.0737 l -0.68964,-1.51204 -1.06408,0.77081 c -1.1145,0.80734 -2.14521,1.21267 -3.62595,1.42592 -0.48612,0.07 -1.31956,0.41337 -1.85209,0.76302 -1.22584,0.80488 -2.52663,1.25497 -3.62696,1.25497 -0.54278,0 -1.36279,0.33837 -2.22322,0.9174 -2.32594,1.56524 -4.2087,1.83614 -6.35228,0.914 -1.19847,-0.51557 -2.41785,-1.70884 -3.14774,-3.08035 l -0.31265,-0.58749 -1.6705,0.91822 c -1.16536,0.64056 -2.00946,0.91822 -2.79147,0.91822 -0.79903,0 -1.43864,0.21728 -2.22699,0.75654 -2.56222,1.75264 -4.09768,2.05719 -5.63761,1.11818 -1.02258,-0.62354 -2.40248,-3.28091 -2.64224,-5.08837 -0.20207,-1.52326 -0.44294,-1.77597 -0.84717,-0.88878 -0.43812,0.96156 -2.263109,1.99241 -3.836919,2.16728 -0.76065,0.0845 -1.60686,0.36463 -1.9004,0.62906 -0.90407,0.81443 -3.0879,1.60786 -4.23181,1.53751 -0.86341,-0.0531 -1.20882,0.0739 -1.79466,0.65973 -1.03537,1.03537 -2.31293,1.4901 -4.18641,1.4901 -2.86726,0 -4.26165,-1.41115 -4.28921,-4.3408 l -0.0153,-1.6323 -1.60482,0.51434 c -0.88265,0.28289 -2.49779,0.90271 -3.58919,1.37738 -1.09141,0.47467 -2.4011,0.94109 -2.91042,1.03648 -0.50932,0.0954 -1.87854,0.64626 -3.04271,1.22415 -2.371569,1.17723 -3.587723,1.36624 -10.920548,1.69718 -2.93874,0.13263 -4.253423,0.0946 -4.81856,-0.13952 -1.57294,-0.65154 -2.425477,-3.85245 -1.872231,-7.02943 0.42209,-2.42382 1.050383,-3.53608 2.851849,-5.04863 1.871943,-1.57172 2.046486,-1.77393 2.822064,-3.26927 0.640101,-1.23413 1.439873,-4.22143 1.553464,-5.80246 0.06184,-0.86067 0.01056,-0.91937 -0.990126,-1.13347 -0.757394,-0.16205 -1.085215,-0.13616 -1.161167,0.0917 -0.05821,0.17462 -0.488786,0.73536 -0.956839,1.2461 -0.753864,0.82261 -1.031213,0.94165 -2.429634,1.0428 -4.917512,0.3557 -8.373206,-5.22678 -8.750129,-14.13534 -0.314063,-7.42282 1.884723,-13.93675 6.151023,-18.22248 1.965706,-1.97465 4.942547,-3.70341 6.926337,-4.02237 0.556141,-0.0894 1.933512,-0.62199 3.060825,-1.18351 1.127312,-0.56151 2.437,-1.09499 2.910416,-1.18551 0.473417,-0.0905 1.561201,-0.51404 2.417297,-0.94117 2.673789,-1.33402 4.606419,-1.58558 10.746589,-1.39884 8.05207,0.24488 10.04246,0.64026 11.54457,2.29328 1.65348,1.8196 2.07734,3.96541 2.01998,10.22623 -0.0431,4.7017 -0.011,5.09641 0.40422,4.97077 0.24806,-0.0751 0.9477,-0.24521 1.55476,-0.37811 0.60705,-0.1329 1.44049,-0.47055 1.85209,-0.75034 2.71147,-1.84319 5.26096,-1.42956 5.903819,0.95784 0.24583,0.91291 0.37319,1.02713 1.26099,1.13077 0.80121,0.0935 1.07972,-0.002 1.47609,-0.50579 0.2687,-0.3416 0.84234,-0.80404 1.27475,-1.02765 0.49036,-0.25357 0.97242,-0.84097 1.28104,-1.56096 1.07201,-2.50089 3.55526,-4.38187 6.50473,-4.92711 0.79575,-0.14711 2.00982,-0.6136 2.69792,-1.03666 0.6881,-0.42306 1.8464,-0.90426 2.574,-1.06932 0.72761,-0.16507 1.68011,-0.48588 2.11667,-0.71293 2.22549,-1.15742 2.83068,-1.38529 4.31336,-1.62407 2.1229,-0.34188 3.34728,-0.006 4.04951,1.11182 1.11785,1.77897 -7.9e-4,5.46363 -2.30271,7.58557 -1.30345,1.20146 -3.51119,2.38621 -4.44665,2.38621 -0.35917,0 -0.9882,0.13326 -1.39786,0.29612 l -0.74483,0.29612 1.11758,0.38509 c 1.28957,0.44435 2.4543,1.68527 2.4543,2.61485 0,0.75282 -0.0845,0.7419 2.13987,0.27651 0.95855,-0.20055 2.24559,-0.69736 2.8601,-1.10403 0.76326,-0.5051 1.56949,-0.77689 2.54436,-0.85773 1.90621,-0.15808 2.59585,0.0498 3.81283,1.14926 l 1.02508,0.92609 0.96628,-0.57012 c 0.53323,-0.31461 1.49456,-0.59238 2.14505,-0.61979 0.77906,-0.0328 1.46974,-0.26796 2.03687,-0.69341 3.62322,-2.71813 7.16698,-1.06642 7.75163,3.61293 0.0984,0.78753 0.2151,1.43186 0.25934,1.43186 0.68376,0 3.76331,-1.04891 5.11172,-1.74107 0.96708,-0.49643 2.17505,-0.97784 2.68437,-1.06983 0.50932,-0.092 1.80352,-0.59081 2.876,-1.10851 1.6206,-0.78229 2.31541,-0.96046 4.11368,-1.05485 3.36949,-0.17685 5.3805,0.88603 6.76722,3.57669 2.17678,4.2236 0.67218,11.53404 -3.16329,15.3695 -1.23832,1.23832 -3.42398,2.42683 -4.46831,2.42976 -0.53729,0.002 -1.47477,0.35855 -2.38125,0.90692 -0.8223,0.49744 -1.88126,0.98298 -2.35325,1.07898 -0.70824,0.14404 -0.81379,0.25181 -0.60417,0.61691 0.69934,1.21808 0.71499,1.22006 1.60758,0.20346 1.37745,-1.56883 3.34205,-2.25337 4.14956,-1.44585 0.22308,0.22308 0.62098,-0.0128 1.55789,-0.92339 1.53242,-1.48944 2.7148,-1.81574 3.76222,-1.03826 1.03941,0.77152 1.35768,1.59645 1.35581,3.51413 -0.005,5.57224 -5.28836,12.23844 -10.58441,13.35585 -0.50352,0.10624 -1.74893,0.59614 -2.76757,1.08868 -1.01865,0.49252 -2.35921,0.95538 -2.97904,1.02857 -0.61982,0.0732 -1.57247,0.42791 -2.117,0.78826 -0.77502,0.51289 -4.02296,1.84605 -4.13965,1.69918 -0.0136,-0.0171 -0.59354,-0.12677 -1.28874,-0.24369 z M 59.091681,185.0833 c 0.112897,-0.0672 -0.08192,-0.46346 -0.432919,-0.8806 -0.91366,-1.08583 -1.330214,-3.12104 -1.141,-5.57472 0.218146,-2.82888 0.879663,-4.10828 3.196217,-6.18158 2.596208,-2.32359 3.171917,-3.51215 3.288572,-6.78928 0.08727,-2.45151 0.06912,-2.54824 -0.506161,-2.69868 -0.459023,-0.12004 -0.830628,0.085 -1.610842,0.889 -0.557794,0.57477 -1.110149,1.04504 -1.227455,1.04504 -0.117305,0 -0.367641,0.92273 -0.556302,2.05052 -0.479224,2.86471 -1.460291,5.83291 -2.38724,7.22254 -0.432168,0.64789 -1.442358,1.69838 -2.244865,2.33443 -0.802506,0.63605 -1.628334,1.41473 -1.835172,1.7304 -0.591211,0.90231 -1.020132,3.44464 -0.817422,4.84509 0.313515,2.16592 0.912199,2.5123 3.952656,2.28691 1.164166,-0.0863 2.209038,-0.21188 2.321933,-0.27907 z m 27.64275,-0.0756 1.1251,-0.5107 -0.65508,-0.96531 c -1.05378,-1.55282 -1.10157,-2.51432 -0.31494,-6.33605 0.38939,-1.89177 0.70713,-3.65514 0.70609,-3.9186 -0.001,-0.26346 -0.55004,0.59341 -1.21999,1.90416 -0.87756,1.71692 -1.65777,2.80255 -2.79082,3.8833 -1.32886,1.26752 -1.61074,1.70056 -1.81787,2.79272 -0.30799,1.62403 -0.0128,2.44953 1.12384,3.14252 1.08739,0.66298 2.39464,0.66569 3.84367,0.008 z m 60.607089,0.11519 c 0.75402,-0.22392 1.37094,-0.4768 1.37094,-0.56196 0,-0.0851 -0.51397,-0.60724 -1.14215,-1.16019 -1.36309,-1.19984 -2.5632,-3.64022 -3.41991,-6.95424 -0.3261,-1.26146 -0.65343,-2.2922 -0.7274,-2.29053 -0.074,0.002 -0.37262,0.49998 -0.66366,1.10737 -0.29104,0.60739 -1.03519,1.85899 -1.65365,2.78135 -0.61846,0.92235 -1.12448,1.83505 -1.12448,2.02822 0,0.55155 1.2943,2.86486 2.0727,3.70453 0.7759,0.83699 2.51326,1.73767 3.36938,1.74676 0.30101,0.003 1.16422,-0.17739 1.91823,-0.40131 z m -39.08909,-0.6121 0.94726,-0.56753 -0.74817,-1.52173 c -0.41149,-0.83695 -0.86753,-2.16305 -1.01341,-2.9469 -0.38244,-2.05495 -0.32433,-7.70397 0.12959,-12.59774 0.21596,-2.32833 0.39407,-5.15881 0.39579,-6.28995 l 0.003,-2.05662 -0.65794,0.4311 c -0.64719,0.42405 -1.89301,0.41888 -3.20822,-0.0133 -0.71408,-0.23466 -0.94541,0.51788 -0.72931,2.37254 0.0848,0.72761 -0.11057,4.18042 -0.43409,7.67292 -0.61858,6.67768 -0.60971,11.49992 0.0247,13.41736 0.17868,0.54007 0.6831,1.41654 1.12094,1.94771 0.74599,0.90501 0.87237,0.95802 2.00927,0.84273 0.66727,-0.0677 1.63948,-0.37843 2.16047,-0.69057 z m 16.02122,0.36013 0.94419,-0.39451 -1.22024,-1.3572 c -0.67114,-0.74646 -1.28933,-1.63247 -1.37377,-1.96891 l -0.15353,-0.61171 -1.23257,0.86476 c -0.67791,0.47561 -1.61951,1.01781 -2.09246,1.20489 -1.01822,0.40277 -1.05607,0.59658 -0.26458,1.35472 1.34187,1.28533 3.58567,1.6631 5.39296,0.90796 z m -60.360152,-1.98674 c 0.436562,-0.11108 0.638334,-0.21606 0.448384,-0.23328 -0.189952,-0.0172 -0.651891,-0.70084 -1.026533,-1.51916 -0.622377,-1.35945 -0.668414,-1.69626 -0.533437,-3.9026 0.222012,-3.62901 0.48388,-4.19961 3.111727,-6.78037 1.259492,-1.23693 2.487102,-2.63297 2.728012,-3.1023 0.77174,-1.50347 1.45197,-5.11887 1.75278,-9.31593 0.16097,-2.24611 0.46308,-5.2822 0.67134,-6.74687 0.695,-4.88779 0.37259,-10.46846 -0.70697,-12.23734 -0.77332,-1.2671 -2.00309,-1.58158 -3.534929,-0.90397 l -1.211741,0.53601 0.540874,1.0602 c 0.607394,1.19059 1.321946,3.97338 1.329566,5.1779 0.003,0.43657 0.28907,1.35359 0.63624,2.03783 1.34331,2.64753 1.59412,9.38853 0.45988,12.36034 -0.30093,0.78848 -0.891,1.86147 -1.31128,2.38444 -0.549404,0.68367 -0.85254,1.4704 -1.078769,2.79975 -0.511233,3.00408 -1.530072,6.00377 -2.50484,7.3748 -0.501118,0.70483 -1.626539,1.86038 -2.500939,2.56789 -1.867863,1.51136 -2.27244,2.4243 -2.28668,5.15995 -0.01024,1.96529 0.402145,3.17142 1.152982,3.37228 0.684787,0.1832 3.003603,0.12945 3.864333,-0.0896 z m 29.033113,-0.21998 c 0.23321,-0.23321 0.20118,-0.3871 -0.13298,-0.63892 -0.62737,-0.47279 -1.25212,-2.12778 -1.24566,-3.29979 0.003,-0.55038 0.17831,-1.77459 0.38951,-2.72047 1.12601,-5.04292 1.53294,-8.62944 1.56106,-13.75834 0.0355,-6.46812 -0.20905,-7.66527 -1.74151,-8.52657 -0.5812,-0.32665 -1.21967,-0.89328 -1.41881,-1.25919 -0.33107,-0.60831 -0.36379,-0.47269 -0.38208,1.58368 -0.011,1.23693 -0.13104,5.52318 -0.26676,9.525 -0.2426,7.15338 -0.4561,9.07513 -1.62526,14.62939 -0.63528,3.01803 -0.44135,3.96089 0.94392,4.58902 0.93617,0.42448 3.44969,0.34506 3.91857,-0.12381 z m 60.360579,0.1976 1.02284,-0.28401 -0.94639,-0.64308 c -2.60385,-1.76937 -4.74935,-8.1877 -5.34303,-15.98386 -0.3336,-4.38083 1.05904,-9.75344 3.45374,-13.32408 1.47752,-2.20307 0.91643,-1.98789 -1.83669,0.70438 l -1.94711,1.90407 -0.31427,2.64584 c -0.4456,3.75168 -1.21864,7.62728 -2.13987,10.72828 -0.71781,2.41622 -0.7674,2.81608 -0.5191,4.18537 1.43661,7.9224 4.27703,11.25907 8.56988,10.06709 z m -39.52607,-0.37122 0.76113,-0.39359 -0.75091,-1.52463 c -0.41301,-0.83855 -0.90148,-2.23901 -1.08549,-3.11214 -0.4449,-2.11102 -0.39243,-7.21803 0.12848,-12.50545 0.23318,-2.36685 0.42396,-5.41463 0.42396,-6.77284 v -2.46946 l -1.07492,-0.48473 c -0.5912,-0.26659 -1.35013,-0.8118 -1.68652,-1.21156 l -0.6116,-0.72685 -0.39693,1.63441 c -0.3,1.23527 -0.34016,2.08669 -0.16448,3.48648 0.22135,1.76364 0.0654,4.7239 -0.57129,10.84792 -0.13617,1.30969 -0.24965,3.71484 -0.25217,5.34479 -0.006,4.16673 0.53942,6.44401 1.86157,7.76616 0.62879,0.62879 2.32183,0.68895 3.41917,0.12149 z m 16.5591,0.0686 c 0.0929,-0.0929 -0.27522,-0.61303 -0.81803,-1.15585 -1.17043,-1.17043 -2.04943,-2.98924 -2.67284,-5.53063 -0.63337,-2.58195 -0.63396,-8.99051 -0.001,-11.95939 0.4818,-2.26022 0.63087,-4.85969 0.33259,-5.79949 -0.10893,-0.34319 -0.75946,-0.79987 -1.74536,-1.22526 -2.29648,-0.99088 -2.73175,-1.79285 -2.54726,-4.69326 0.0786,-1.23539 0.26571,-2.28711 0.41585,-2.33715 0.15009,-0.05 0.27294,-0.20606 0.27294,-0.34668 0,-0.16313 -0.16309,-0.16442 -0.45052,-0.004 -0.43893,0.24563 -1.51446,4.07223 -1.83285,6.52104 -0.12551,0.96536 -0.0676,1.09709 0.65925,1.49943 0.60107,0.33273 0.89847,0.7833 1.21048,1.83396 0.53578,1.80417 0.52108,2.62555 -0.11553,6.4562 -0.73003,4.39279 -0.72481,4.45316 0.42121,4.86756 1.87855,0.6793 2.32161,4.00956 0.90506,6.80296 -0.43472,0.85726 -0.79191,1.68416 -0.79375,1.83757 -0.002,0.15341 0.33644,0.81473 0.75174,1.46958 1.01691,1.60351 2.10841,2.12863 4.19569,2.01855 0.90392,-0.0477 1.71949,-0.16268 1.81239,-0.25558 z m -56.372559,-1.95236 c 4.19647,-0.22891 6.55898,-1.08909 8.69866,-3.16712 3.51005,-3.40891 5.19292,-8.7565 5.71206,-18.15103 0.5118,-9.26163 0.8128,-23.54211 0.53602,-25.43024 -0.29454,-2.00928 -1.12776,-3.89093 -1.72295,-3.89093 -0.21532,0 -0.39149,-0.12514 -0.39149,-0.27809 0,-0.98258 -5.91917,-1.63348 -13.49375,-1.48383 -4.69665,0.0928 -5.87281,0.41372 -8.682765,2.36923 -3.252986,2.26383 -5.563775,5.95799 -6.799363,10.86984 -0.522698,2.07789 -0.65746,3.2798 -0.65746,5.86371 0,5.38099 0.987136,9.01895 3.118702,11.49354 1.27068,1.47517 2.497484,2.12185 4.025347,2.12185 0.905383,0 1.273474,-0.16253 1.98927,-0.87832 1.358319,-1.35832 1.823489,-3.33331 1.630119,-6.92118 -0.17566,-3.25957 -0.46195,-4.51472 -1.261624,-5.53134 -0.86306,-1.09721 -1.670317,-0.91404 -2.780199,0.63084 -0.996154,1.38657 -1.841415,1.70547 -2.480241,0.93573 -0.176734,-0.21295 -0.384654,-1.31428 -0.462045,-2.4474 -0.29781,-4.36036 1.605148,-8.39247 4.861481,-10.30081 1.457308,-0.85404 3.255298,-0.92923 4.270438,-0.17858 1.03095,0.76234 1.86643,2.41508 2.34181,4.63258 0.71493,3.33492 0.22964,14.00051 -0.96307,21.16607 -0.94251,5.66243 -2.06965,8.01947 -4.919206,10.28694 -1.433957,1.14103 -1.749306,1.54771 -2.090176,2.69555 -0.728102,2.45178 -0.371491,5.36377 0.717473,5.8587 0.31559,0.14344 2.524799,0.0767 8.802959,-0.26571 z m 2.95998,-9.04498 c -0.23612,-0.26091 -0.63687,-1.24318 -0.89054,-2.18281 -0.63995,-2.37046 -0.6333,-12.9031 0.0113,-17.81659 0.96752,-7.37551 2.30209,-11.5838 4.35216,-13.72359 1.11749,-1.16639 1.91636,-1.26087 2.66066,-0.31465 1.24836,1.58703 1.3386,5.36965 0.42927,17.99181 -0.71202,9.88318 -1.52378,13.30284 -3.70748,15.61823 -0.9694,1.02787 -2.15183,1.20495 -2.85532,0.4276 z m 1.98887,-2.00173 c 0.70437,-0.53522 1.69975,-2.76315 2.16492,-4.84568 0.52198,-2.33685 1.09286,-8.62326 1.49684,-16.48301 0.4595,-8.93968 0.0393,-10.79477 -1.85347,-8.18193 -1.19832,1.65423 -1.86192,3.69528 -1.86519,5.73678 -0.005,3.25495 -0.76941,14.9571 -1.2154,18.61128 -0.60337,4.94363 -0.26208,6.32847 1.2723,5.16256 z m 19.52205,10.9952 c 1.648299,-0.80604 1.716359,-1.24038 1.18514,-7.56338 -0.58316,-6.94123 -0.64839,-13.41982 -0.1595,-15.84074 0.46357,-2.29553 1.597169,-3.97081 2.605499,-3.85049 0.55291,0.066 0.85869,0.41737 1.53223,1.76075 0.94878,1.89234 1.23696,2.14834 2.42489,2.15408 1.58449,0.008 2.48695,-2.38213 2.49195,-6.59891 0.005,-4.15963 -0.79128,-6.10661 -2.48957,-6.08766 -1.56428,0.0174 -2.86775,1.2504 -4.54095,4.29532 -1.877239,3.41622 -2.648399,2.95281 -2.555009,-1.53536 0.0567,-2.72642 0.0117,-3.05972 -0.47909,-3.55057 -0.69388,-0.69388 -1.16176,-0.67899 -2.81214,0.0895 -1.65066,0.76861 -3.05652,2.17868 -3.94019,3.95199 -1.05611,2.11932 -0.86375,3.12805 0.79156,4.15109 1.83845,1.13622 2.51457,3.79624 2.50041,9.83725 -0.01,4.16005 -0.48762,8.49227 -1.49227,13.52847 -0.66447,3.33095 -0.69429,3.72013 -0.33413,4.36179 0.21749,0.38749 0.68949,0.85332 1.0489,1.03518 0.92327,0.46718 3.13205,0.39483 4.22227,-0.13831 z m 20.533839,-0.0648 c 2.66442,-1.28982 4.86923,-4.14087 4.86923,-6.29643 0,-1.20596 -0.27894,-1.4906 -1.71492,-1.74997 -1.5724,-0.284 -1.98475,-0.59524 -2.58592,-1.95187 -1.17309,-2.64721 -0.8864,-8.97277 0.7493,-16.53258 1.10714,-5.11691 1.14958,-6.30986 0.25627,-7.20317 -1.39029,-1.39029 -5.35463,-0.56431 -7.78677,1.62238 -1.3544,1.21773 -2.04828,2.61002 -1.75745,3.52636 0.0899,0.28314 0.81711,0.88374 1.61608,1.33465 0.86648,0.48901 1.55565,1.09066 1.70784,1.49095 0.3829,1.0071 0.30779,5.87466 -0.16781,10.87453 -0.56149,5.90289 -0.41411,11.36256 0.35287,13.07146 0.63262,1.40954 1.70393,2.35524 2.66807,2.35524 0.37099,0 1.17794,-0.2437 1.79321,-0.54155 z m 17.21861,-0.24443 c 4.0926,-2.4147 6.78046,-7.30037 8.66514,-15.75048 1.01965,-4.57166 1.51922,-8.45285 1.54957,-12.03854 0.0241,-2.85484 -0.0499,-3.48045 -0.5415,-4.573 -1.05179,-2.33763 -3.40191,-2.55738 -5.64806,-0.52813 -1.39186,1.25747 -2.25349,2.78565 -2.57015,4.55844 -0.37412,2.09444 0.23211,3.18852 1.76676,3.18852 0.37832,0 0.65189,0.33312 0.98073,1.19418 0.61321,1.60565 0.4063,6.0872 -0.40294,8.7277 -0.91415,2.98282 -2.20338,5.45782 -3.41153,6.54932 -1.56347,1.41249 -2.37197,1.31577 -3.24103,-0.38774 -1.12758,-2.21023 -0.98891,-4.82822 0.61365,-11.58554 0.66889,-2.8204 0.77064,-3.71629 0.69114,-6.08542 -0.0776,-2.31355 -0.2032,-2.99705 -0.75084,-4.08729 -0.90211,-1.79592 -1.79971,-2.39835 -3.54868,-2.38175 -3.24835,0.0308 -6.97312,4.13737 -6.07335,6.69584 0.17186,0.4887 0.6032,0.8053 1.55832,1.14383 2.82231,1.00032 3.38891,2.89924 2.54878,8.54206 -0.8108,5.44591 -0.88309,6.6185 -0.58238,9.44702 0.45197,4.25127 1.93641,7.12819 4.04552,7.84041 1.1893,0.40161 3.25168,0.17909 4.35085,-0.46943 z m 24.07997,-0.0217 c 2.75411,-1.31189 6.43916,-5.97395 7.09961,-8.98192 0.27694,-1.26127 0.20439,-2.631 -0.16279,-3.07342 -0.72311,-0.8713 -1.64593,-0.42688 -3.9491,1.90188 -1.23371,1.24742 -2.56462,2.43805 -2.95758,2.64583 -2.69921,1.42729 -5.49816,-1.08397 -5.5943,-5.01929 -0.0612,-2.50394 0.29356,-2.80058 3.37321,-2.82077 1.32352,-0.009 2.97148,-0.10879 3.66215,-0.22248 4.12528,-0.67907 7.68167,-6.42134 7.25507,-11.71429 -0.27223,-3.37778 -1.67028,-5.0115 -4.69814,-5.49014 -3.24925,-0.51364 -6.34712,0.79561 -9.6557,4.08075 -2.48866,2.47104 -4.0804,5.34271 -4.73951,8.55059 -1.01181,4.92444 -0.0511,13.02131 2.03067,17.11447 0.95939,1.88635 1.61621,2.65207 2.86331,3.33803 1.22551,0.67409 3.70258,0.53413 5.4731,-0.30924 z m -4.09234,-18.44076 c -0.35525,-0.86511 -0.13642,-3.10361 0.45285,-4.63232 0.38869,-1.00838 1.0973,-2.05949 2.09584,-3.10885 1.37634,-1.44639 1.60604,-1.58539 2.61994,-1.58539 1.2989,0 1.8764,0.64274 2.10433,2.34206 0.4183,3.11867 -3.20404,7.44752 -6.23202,7.44752 -0.56147,0 -0.91547,-0.15746 -1.04094,-0.46302 z m 2.83752,-2.17513 c 1.73988,-0.88762 3.51103,-3.5521 3.09019,-4.6488 -0.55838,-1.45511 -3.66072,1.00131 -3.95242,3.12952 -0.0858,0.62626 -0.23396,1.34163 -0.32916,1.58971 -0.22134,0.57679 -0.0584,0.56716 1.19139,-0.0704 z m -56.99104,4.26341 0.18775,-2.74037 -0.89343,0.19159 c -0.49139,0.10537 -0.94647,0.24063 -1.01129,0.30058 -0.17463,0.1615 0.51936,11.00093 0.72511,11.32538 0.17711,0.27929 0.6428,-3.98258 0.99186,-9.07718 z m 58.26286,6.59176 c 0.84967,-0.70883 0.73556,-0.92144 -0.19843,-0.36972 -0.43657,0.25788 -0.79375,0.56227 -0.79375,0.67642 0,0.33482 0.35457,0.22521 0.99218,-0.3067 z m -24.40205,-0.5959 c 0.99071,-0.7793 2.6316,-4.36707 3.14768,-6.88236 0.48853,-2.38102 0.5635,-5.76584 0.12769,-5.76584 -0.72979,0 -2.15507,-0.94199 -2.55604,-1.68932 l -0.44222,-0.82422 -0.21381,1.5875 c -0.11761,0.87312 -0.26023,2.91611 -0.31695,4.53997 -0.0709,2.03148 -0.32868,3.86551 -0.82619,5.87941 -0.59206,2.39663 -0.66225,3.00021 -0.38741,3.33138 0.44076,0.53109 0.59059,0.51306 1.46725,-0.17652 z m -13.94138,-6.16591 c 0.33325,-2.29949 0.10454,-3.77722 -0.66346,-4.28693 -0.55911,-0.37108 -0.58215,-0.34461 -0.77799,0.89393 -0.36002,2.27681 -0.27087,8.07255 0.13766,8.94925 0.40754,0.87457 0.31418,1.27246 1.30379,-5.55625 z m -67.808417,1.33486 c 1.370819,-0.57276 1.396664,-1.0389 0.133572,-2.40919 -1.305798,-1.41663 -2.502993,-3.95467 -3.096691,-6.56496 -0.235093,-1.03363 -0.596596,-2.00301 -0.803336,-2.15419 -0.92691,-0.67777 -1.109549,-4.08484 -0.361466,-6.74298 0.266202,-0.94588 0.796086,-2.91041 1.17752,-4.36562 0.659162,-2.51476 2.673284,-7.13974 3.543808,-8.13756 0.845,-0.96857 0.025,-0.73072 -1.683197,0.48822 -3.081793,2.19912 -5.338276,5.89126 -6.616769,10.82659 -0.63328,2.44463 -0.674238,2.94226 -0.54424,6.61233 0.150183,4.2399 0.53744,6.18677 1.681258,8.45226 1.152591,2.28286 2.258536,3.38752 4.022989,4.01831 1.227688,0.4389 1.445321,0.43692 2.546552,-0.0232 z m 6.591234,-2.51625 c 0.299048,-0.24819 0.156257,-0.51164 -0.790364,-1.45826 -3.044534,-3.04454 -4.82582,-9.9286 -4.150024,-16.03844 0.167487,-1.51424 0.551212,-3.70566 0.852723,-4.86983 0.573551,-2.21453 2.261111,-6.04487 3.175233,-7.20699 0.813306,-1.03395 0.426165,-1.02905 -0.982231,0.0124 -4.222681,3.12262 -6.957748,9.62949 -6.957748,16.55284 0,6.61603 1.885603,11.36309 5.126366,12.90576 1.415801,0.67396 2.985449,0.71713 3.726045,0.10249 z m 41.311593,-4.12014 c 0.66383,-0.87032 0.69184,-1.00937 0.39972,-1.98437 -0.17277,-0.57666 -0.43449,-1.04847 -0.58159,-1.04847 -0.3471,0 -0.9252,1.41729 -1.16016,2.84427 -0.23864,1.44935 0.32047,1.52791 1.34203,0.18857 z m 35.14888,-9.97366 c 0.17964,-0.4104 0.11455,-0.42849 -0.62012,-0.17239 -0.45145,0.15738 -0.87705,0.37714 -0.94579,0.48836 -0.0687,0.11123 0.007,0.95382 0.16922,1.87243 l 0.2942,1.67021 0.45089,-1.70005 c 0.24799,-0.93502 0.54121,-1.90637 0.6516,-2.15856 z m -36.38356,-1.8722 c 0.0102,-0.11772 -0.10046,-0.14046 -0.24599,-0.0505 -0.14552,0.0899 -0.25621,0.42439 -0.24598,0.74322 0.0179,0.5589 0.0267,0.56071 0.24598,0.0505 0.12507,-0.29104 0.23576,-0.62549 0.24599,-0.74322 z m -37.70485,-0.14353 c 0.474409,-0.9174 1.500355,-1.62679 2.352744,-1.62679 0.607346,0 0.623486,-0.0491 0.426157,-1.29743 -0.21649,-1.3695 -0.826646,-2.77356 -1.344343,-3.09351 -0.772612,-0.4775 -2.340282,3.28005 -2.340282,5.60944 0,1.33829 0.344496,1.49359 0.905724,0.40829 z m 27.665231,-0.51792 c 0.002,-0.19049 -0.11502,-0.27276 -0.26054,-0.18283 -0.14552,0.0899 -0.26276,0.42439 -0.26053,0.74322 0.003,0.47129 0.052,0.50548 0.26053,0.18283 0.14107,-0.21829 0.25831,-0.55273 0.26054,-0.74322 z m 19.609879,-0.61809 c 1.46564,-0.49373 1.55646,-0.65206 1.00002,-1.74348 -0.55064,-1.08005 -0.63278,-2.38019 -0.23746,-3.7586 0.14303,-0.49873 0.20651,-0.96033 0.14106,-1.02578 -0.26683,-0.26682 -3.06675,1.35957 -3.8226,2.22044 -0.44652,0.50855 -0.80726,1.00979 -0.80166,1.11387 0.006,0.10408 0.38051,0.42736 0.83311,0.7184 0.4526,0.29104 1.0731,1.03186 1.37887,1.64628 0.30578,0.61441 0.56796,1.12043 0.58262,1.12448 0.0147,0.004 0.43138,-0.12897 0.92604,-0.29561 z m 6.15058,-2.37257 0.64589,-0.29428 -0.53069,-1.19973 c -0.5279,-1.19339 -0.5662,-3.2125 -0.0827,-4.35876 0.17104,-0.40549 0.10431,-0.42747 -0.57687,-0.19 -2.75299,0.95969 -4.79197,5.03619 -3.03252,6.06286 0.60384,0.35234 2.78638,0.34009 3.57688,-0.0201 z m 6.35454,-2.56553 c 1.92106,-1.04003 3.87239,-3.66206 3.87239,-5.20338 0,-2.28605 -6.57677,-0.74972 -8.39927,1.96207 -2.28745,3.40361 0.51744,5.41195 4.52688,3.24131 z m -109.66417,1.23766 c -0.96255,-0.0986 -2.153175,-0.38408 -2.645834,-0.63441 -2.5269606,-1.28403 -4.5983156,-3.85348 -5.7301566,-7.10809 -0.573647,-1.64952 -0.638618,-2.20405 -0.533957,-4.55732 0.103239,-2.32131 0.216324,-2.84507 0.846406,-3.92023 1.204965,-2.05611 3.392191,-2.88231 4.8770776,-1.84226 0.332832,0.23313 0.632167,0.38195 0.66519,0.33073 0.03302,-0.0512 0.37937,-0.59185 0.769661,-1.20139 l 0.709621,-1.10826 -0.914592,-1.35908 c -1.7438496,-2.59135 -2.5059966,-6.15637 -2.5090356,-11.73628 -0.0043,-7.83524 1.9204526,-15.894554 5.5989736,-23.444374 2.168663,-4.45097 3.810318,-6.82784 6.675787,-9.66553 2.644897,-2.61926 4.64951,-3.85562 7.225983,-4.45667 0.876765,-0.20453 2.115841,-0.67331 2.7535,-1.04172 0.637662,-0.36841 1.933289,-0.9079 2.879175,-1.19887 0.945885,-0.29096 2.535256,-0.91347 3.531936,-1.38334 2.076773,-0.97908 4.765186,-1.31613 6.343351,-0.79529 2.26531,0.74762 4.17276,3.27217 5.109279,6.76225 0.619104,2.30719 0.424275,9.50786 -0.32703,12.08659 -0.100672,0.34555 0.273023,0.23835 1.67301,-0.47994 0.991452,-0.50868 2.336343,-0.99281 2.988649,-1.07585 0.652309,-0.083 1.840857,-0.54681 2.641222,-1.03061 0.800364,-0.4838 2.050521,-1.0249 2.778125,-1.20245 0.727604,-0.17754 2.174499,-0.73055 3.215325,-1.2289 3.412215,-1.63377 6.368855,-1.0631 8.799685,1.69847 l 0.97902,1.11223 1.30486,-0.81217 c 0.75506,-0.46995 1.80793,-0.86579 2.49882,-0.93944 0.72494,-0.0773 1.79252,-0.49282 2.71767,-1.05782 1.94947,-1.19054 3.63963,-1.39294 4.92068,-0.58926 0.48848,0.30645 0.94514,0.77516 1.01481,1.04157 0.0958,0.36642 0.45864,0.51629 1.48978,0.61537 1.28347,0.12333 1.43003,0.0721 2.50873,-0.87744 1.33812,-1.17786 2.33819,-1.46685 3.61639,-1.045 1.09779,0.3623 2.94673,2.37006 3.18607,3.45975 0.22073,1.005 0.65231,0.9784 2.10396,-0.12967 0.77482,-0.59144 1.71647,-1.0124 2.71427,-1.21343 0.840319,-0.1693 1.765979,-0.44234 2.057019,-0.60676 3.6993,-2.08988 5.14742,-2.0674 8.17656,0.12689 l 1.08353,0.78491 0.32338,-0.79253 c 0.3691,-0.90455 1.27192,-1.6268 2.03353,-1.6268 1.08271,0 2.85703,1.12548 3.5857,2.27446 0.65,1.02496 0.77369,1.10531 1.22676,0.79701 0.97671,-0.66464 2.20874,-0.94738 2.93121,-0.6727 0.5686,0.21618 0.75234,0.16925 1.06063,-0.27089 0.57775,-0.82485 2.54689,-1.8633 3.53325,-1.8633 0.72152,0 1.11663,0.24212 2.09406,1.28321 0.96194,1.02459 1.31126,1.24164 1.73328,1.07693 0.29069,-0.11345 0.98906,-0.21465 1.55193,-0.22488 0.74221,-0.0135 1.27115,-0.23612 1.92506,-0.81025 0.4959,-0.43541 1.40459,-0.91892 2.0193,-1.07445 l 1.11765,-0.28279 0.0128,-1.90211 c 0.0144,-2.13269 0.37365,-3.02318 1.9023,-4.71521 1.26421,-1.39932 2.75426,-2.13229 4.44018,-2.18417 1.06483,-0.0328 1.55303,-0.20187 2.23189,-0.77309 1.2746,-1.0725 2.27634,-1.52381 3.54601,-1.59758 0.62061,-0.0361 1.47827,-0.31179 1.90591,-0.61274 2.98312,-2.09933 5.59941,-1.85931 6.63043,0.60826 0.48765,1.16713 0.42785,3.9059 -0.11872,5.43713 -1.05271,2.94921 -3.45273,4.97799 -5.88888,4.97799 -0.83938,0 -1.3083,0.18434 -1.98878,0.78181 -1.14987,1.0096 -2.79531,1.51904 -3.75761,1.16338 -0.63484,-0.23464 -0.84631,-0.14494 -1.91848,0.81378 -0.66274,0.59262 -1.40636,1.19655 -1.65248,1.34207 -0.28248,0.16702 -0.36715,0.38953 -0.22959,0.60342 0.1659,0.25798 0.5881,0.11592 1.76921,-0.59531 0.93176,-0.56108 1.89592,-0.93415 2.4142,-0.93415 0.4954,0 1.71872,-0.45073 2.87241,-1.05833 2.07797,-1.09439 3.3898,-1.31565 4.74515,-0.80035 0.57851,0.21995 1.53429,1.39629 1.81847,2.23811 0.0459,0.13592 0.58455,0.0466 1.19703,-0.19844 0.61248,-0.24506 1.53585,-0.44557 2.05194,-0.44557 0.59011,0 1.25619,-0.24244 1.79482,-0.65328 1.10772,-0.84489 2.60193,-1.46365 3.53149,-1.4624 1.0529,0.001 2.39228,0.90599 2.89148,1.95283 l 0.42876,0.89912 1.08918,-0.49462 c 0.59905,-0.27204 1.44637,-0.49801 1.88293,-0.50217 0.43656,-0.004 1.15094,-0.24999 1.5875,-0.54629 1.22769,-0.83327 2.55062,-1.33695 3.62771,-1.38117 1.16445,-0.0478 2.15761,0.74555 2.59594,2.07369 l 0.28588,0.86623 1.21379,-0.53691 c 0.78465,-0.34709 1.52017,-0.4872 2.08041,-0.39628 0.65465,0.10623 0.98543,0.009 1.35228,-0.39638 0.75446,-0.83425 2.48754,-1.6112 3.59399,-1.6112 1.15003,0 1.85131,0.52359 2.33711,1.74493 0.18393,0.46243 0.35408,0.87105 0.3781,0.90807 0.024,0.037 0.42417,-0.12252 0.88921,-0.35452 0.46504,-0.23199 1.28804,-0.44087 1.82889,-0.46417 0.54085,-0.0233 1.3634,-0.31344 1.8279,-0.64476 1.16211,-0.82891 2.55972,-1.38197 3.49228,-1.38197 1.06033,0 2.27268,1.07782 2.81775,2.50507 l 0.44573,1.16711 1.03762,-0.68666 c 0.723,-0.47847 1.43639,-0.7007 2.3528,-0.73295 0.90955,-0.032 1.49835,-0.21375 1.9091,-0.5893 2.28092,-2.08548 5.42125,-1.81973 7.08581,0.59963 2.32295,3.37629 2.02047,7.81007 -1.00084,14.67043 -1.99778,4.536304 -3.15312,7.595514 -3.36845,8.919264 -0.17345,1.06639 -0.14917,1.12084 0.56789,1.27293 0.412,0.0874 1.15105,0.33544 1.64232,0.55121 l 0.89322,0.39232 -0.11834,2.04415 c -0.0844,1.45843 -0.31879,2.48202 -0.81794,3.57231 -1.30278,2.84562 -5.03559,5.87069 -7.55328,6.12116 -0.54544,0.0543 -1.61589,0.48667 -2.37878,0.9609 -1.01069,0.62829 -1.79746,0.89567 -2.89946,0.98541 -1.1091,0.0903 -1.72405,0.30085 -2.30614,0.78954 -1.18545,0.99523 -2.76723,1.63056 -4.07587,1.63709 -1.01714,0.005 -1.29232,-0.12757 -2.16254,-1.04236 -0.99639,-1.04742 -0.99769,-1.04787 -1.8402,-0.62757 -0.61532,0.30696 -1.2978,0.3841 -2.52602,0.28551 l -1.68292,-0.13509 -0.53568,0.90792 c -1.15573,1.95881 -4.8729,2.27583 -6.31472,0.53854 -0.23507,-0.28325 -0.59141,-0.3276 -1.41784,-0.17648 -0.60711,0.11102 -1.23105,0.1643 -1.38653,0.1184 -1.43647,-0.42406 -1.62594,-0.37666 -2.11353,0.52874 -0.26753,0.49678 -0.876,1.0881 -1.35215,1.31405 -1.75121,0.83101 -4.63407,0.31278 -5.55223,-0.99807 -0.37012,-0.52842 -0.41305,-0.5316 -1.32274,-0.0978 -1.09443,0.5219 -2.01229,0.57538 -2.4452,0.14248 -0.23144,-0.23145 -0.56333,-0.0733 -1.36391,0.64999 -1.20299,1.08684 -2.92805,2.03713 -3.69797,2.03713 -0.56776,0 -1.61724,-1.15867 -1.61724,-1.7855 0,-0.29131 -0.21962,-0.35846 -0.8599,-0.26294 -0.47294,0.0706 -1.14088,0.0225 -1.48429,-0.10677 -0.51727,-0.19473 -0.79829,-0.078 -1.63785,0.68052 -0.55739,0.50357 -1.37182,1.10092 -1.80985,1.32743 -1.02171,0.52835 -2.65604,0.52782 -3.41117,-0.001 -0.73908,-0.51771 -1.38028,-1.73324 -1.38028,-2.61667 0,-0.78311 -0.25248,-0.83126 -1.35887,-0.25913 -0.44188,0.22851 -1.5373,0.5692 -2.43426,0.75709 -0.89695,0.18789 -2.21124,0.70995 -2.92063,1.16013 -1.68336,1.06827 -3.8428,1.53876 -4.85547,1.0579 -0.8977,-0.42626 -1.65897,-1.87195 -1.65952,-3.15149 l -5.3e-4,-0.95153 -1.38907,0.47987 c -0.76398,0.26393 -1.66877,0.48376 -2.01064,0.48851 -0.34186,0.005 -1.29436,0.41952 -2.11666,0.92172 -0.8223,0.50219 -2.03094,1.04463 -2.68587,1.20541 -2.47369,0.6073 -4.37412,-0.86359 -4.17276,-3.22963 l 0.0833,-0.97884 -1.10944,0.15207 c -0.6102,0.0836 -1.48607,0.0208 -1.94638,-0.1397 -0.80688,-0.28127 -0.88263,-0.24207 -2.10873,1.09136 -1.23376,1.34191 -1.31448,1.38312 -2.70874,1.38312 -2.48429,0 -4.44116,-1.79217 -4.44116,-4.06736 0,-0.76143 -0.0226,-0.77404 -1.12447,-0.62649 -0.61847,0.0828 -1.67125,0.48687 -2.33951,0.89788 -3.816439,2.34726 -6.171869,1.95195 -6.545459,-1.09852 l -0.17701,-1.44536 -1.19063,0.0785 c -0.80206,0.0529 -1.62237,0.36014 -2.51355,0.94155 -1.68377,1.09853 -2.81056,1.48339 -4.34308,1.48339 -1.81027,0 -2.93353,-0.70497 -3.79285,-2.38042 -0.65183,-1.2709 -0.72755,-1.69613 -0.72708,-4.08317 5.3e-4,-2.6177 0.81359,-8.95169 1.85341,-14.438504 0.60351,-3.18452 0.62177,-3.37875 0.28485,-3.02948 -0.21167,0.21943 -1.25105,4.358454 -3.1887,12.697954 -0.62871,2.70594 -1.16283,3.73619 -2.43329,4.69348 -0.91705,0.691 -3.04508,1.51305 -3.9168,1.51305 -0.27628,0 -1.0813,0.3599 -1.78891,0.79978 -0.73855,0.45911 -2.01095,0.93449 -2.98716,1.11604 -1.07792,0.20046 -2.15893,0.6247 -2.95241,1.15868 -2.177663,1.46545 -5.859964,1.74434 -7.38403,0.55923 -0.600906,-0.46726 -1.035405,-1.37416 -1.035405,-2.16112 0,-0.37337 -0.09612,-0.67886 -0.213606,-0.67886 -0.117486,0 -1.026425,0.40895 -2.019866,0.90878 -0.993445,0.49984 -2.296306,0.99147 -2.895249,1.09252 -0.598942,0.10105 -1.862894,0.57436 -2.808779,1.05179 -2.128512,1.07437 -3.45203,1.44314 -5.159375,1.43754 -1.300306,-0.004 -3.332449,-0.71418 -3.687141,-1.28808 -0.363577,-0.58828 -0.622901,-0.2497 -1.346759,1.75839 -2.055225,5.70148 -5.271323,11.18416 -7.794659,13.28803 -1.418066,1.18233 -3.395485,2.21866 -5.035249,2.63889 -0.652407,0.16719 -1.734497,0.59402 -2.404647,0.94851 -0.670147,0.35449 -1.976945,0.83885 -2.903992,1.07635 -0.927048,0.2375 -2.489478,0.84152 -3.472072,1.34228 -2.1004,1.07042 -3.660892,1.35625 -6.061822,1.11034 z m 3.92089,-2.30811 c 0.324739,-0.18173 0.145505,-0.36444 -0.840637,-0.85694 -1.579241,-0.78872 -3.95989,-3.33867 -4.766969,-5.10598 -0.864217,-1.89243 -1.457986,-4.34948 -1.457986,-6.03323 0,-1.6808 -0.2960746,-2.06524 -1.5905266,-2.06524 -1.802129,0 -2.90739,1.73871 -2.90739,4.57368 0,2.25861 0.583944,4.08164 1.944027,6.06909 1.868578,2.73051 4.7299236,4.06312 8.0631286,3.75524 0.628989,-0.0581 1.329346,-0.20958 1.556353,-0.33662 z m 5.338639,-2.13027 c 0.282225,-0.17875 0.221839,-0.27532 -0.264584,-0.42313 -1.145807,-0.34818 -3.405862,-2.25188 -4.33293,-3.64973 -1.714236,-2.58477 -2.329339,-4.5039 -2.391477,-7.46139 l -0.05559,-2.64583 -0.81313,-0.0818 c -1.815954,-0.18273 -3.011561,1.68812 -3.01132,4.71203 2.91e-4,3.59558 2.2243,7.34732 5.343966,9.01486 1.158224,0.6191 4.830786,0.97473 5.525064,0.53501 z m 7.333853,-2.77015 c 1.16623,-0.5589 2.380588,-1.41822 3.244638,-2.296 3.601704,-3.65897 5.708325,-8.28383 9.695202,-21.28476 1.320241,-4.30523 2.430732,-6.34143 4.55327,-8.34891 l 1.728899,-1.63518 -0.156022,-1.317354 c -0.08581,-0.72454 -0.374505,-1.69281 -0.641544,-2.1517 -0.399936,-0.68729 -0.674304,-0.84836 -1.55644,-0.91374 -0.910516,-0.0675 -1.270135,0.0781 -2.400986,0.97198 -0.731538,0.57824 -2.204587,2.10225 -3.273443,3.386674 -4.411213,5.30087 -6.86838,7.16157 -9.809428,7.42826 -1.503084,0.13629 -1.552852,0.11889 -2.570816,-0.89908 -1.330542,-1.33053 -1.732182,-2.73018 -1.696982,-5.91366 0.10709,-9.685384 5.42497,-21.658174 11.05911,-24.898734 3.133085,-1.80204 5.000821,-0.31408 5.016717,3.99664 0.0069,1.88227 -0.09938,2.46241 -0.652129,3.55812 -0.36323,0.72004 -0.979019,1.54037 -1.368414,1.82296 l -0.707996,0.51379 -1.596271,-0.83077 c -2.007867,-1.04498 -2.490309,-1.04072 -3.300735,0.0291 -2.031749,2.68213 -1.86808,7.72876 0.302477,9.32657 1.142177,0.84078 4.050953,0.7479 5.628862,-0.17975 3.694972,-2.17226 6.038649,-7.31925 6.623987,-14.54705 0.418862,-5.17215 -0.429983,-8.62994 -2.583995,-10.52598 -1.368819,-1.20488 -2.346698,-1.4703 -4.64815,-1.26161 -7.885679,0.71505 -16.077243,13.08173 -18.757488,28.31791 -0.715796,4.069034 -0.792453,10.457234 -0.159731,13.311094 1.063431,4.79654 3.650961,7.26895 7.221717,6.90042 1.784485,-0.18418 3.047701,-0.90711 5.620065,-3.21632 1.061818,-0.9532 2.014318,-1.73127 2.116667,-1.72904 0.45167,0.01 0.87462,0.49073 1.088991,1.23821 0.604922,2.10924 -1.5766,7.2379 -4.27568,10.05192 -2.021412,2.10749 -3.23423,2.76855 -5.110277,2.78541 -1.804106,0.0162 -3.275169,-0.81701 -4.993537,-2.82838 -1.255768,-1.46989 -2.84231,-2.51996 -3.807399,-2.51996 -0.688488,0 -1.815814,0.92999 -2.353577,1.94159 -0.659085,1.23982 -0.583288,4.39826 0.150823,6.28477 1.107445,2.8459 3.234939,5.12845 5.551133,5.95569 0.534064,0.19075 1.867352,0.35204 2.962862,0.35842 1.731524,0.0101 2.23542,-0.10512 3.85562,-0.88158 z m 117.845258,-9.43939 c 0.21828,-0.11287 0.71654,-0.54288 1.10725,-0.95558 0.66123,-0.69847 0.69026,-0.82525 0.41963,-1.83264 l -0.29075,-1.08225 -1.69562,0.88382 c -0.9326,0.4861 -1.9251,0.88382 -2.20557,0.88382 -0.98937,0 -0.52248,2.09067 0.54839,2.45563 0.43329,0.14767 1.48913,-0.0283 2.11667,-0.3528 z m -12.3821,-0.54253 c 0.97084,-0.49529 1.04909,-0.61234 0.90176,-1.34898 -0.0887,-0.44365 -0.16133,-1.20656 -0.16133,-1.69536 v -0.88872 l -1.02148,0.53243 c -0.56181,0.29283 -1.5393,0.62082 -2.17218,0.72886 -0.91716,0.15657 -1.18779,0.32957 -1.3334,0.85239 -0.53272,1.91273 0.0519,2.78894 1.68637,2.52757 0.57044,-0.0912 1.51556,-0.4099 2.10026,-0.70819 z m 21.51022,0.0427 c 0.43657,-0.28141 1.06407,-0.7298 1.39446,-0.9964 0.6002,-0.48432 0.59957,-0.48469 -0.74356,-0.43995 -1.44998,0.0483 -2.37069,0.61604 -2.37069,1.46184 0,0.63666 0.70892,0.62615 1.71979,-0.0255 z m -34.06673,-0.93121 c 1.31642,-0.61289 1.37397,-0.68134 1.12448,-1.33756 -0.14463,-0.38038 -0.26295,-1.2047 -0.26295,-1.83181 v -1.14021 l -1.06439,0.52662 c -0.87974,0.43526 -1.24325,0.48122 -2.09535,0.26493 l -1.03096,-0.26168 -0.2859,1.64177 c -0.35558,2.04185 -0.36449,1.87892 0.12987,2.37328 0.5962,0.5962 1.88624,0.50908 3.4852,-0.23534 z m -94.839414,-0.20878 c 0.67287,-0.58078 2.292983,-3.45825 2.299664,-4.08441 0.0053,-0.49357 -1.811187,-0.092 -2.892523,0.63945 -0.883778,0.59782 -1.536182,1.74229 -1.581912,2.77505 -0.01548,0.34935 0.627255,0.90163 1.460071,1.25463 0.01376,0.006 0.335362,-0.2573 0.7147,-0.58472 z m 3.536027,-0.42762 c 1.560716,-1.24675 2.13536,-1.89471 3.199117,-3.60728 0.882134,-1.42016 1.917872,-3.86423 1.917872,-4.52567 0,-0.58981 -4.159221,3.26833 -4.352179,4.03713 -0.227563,0.90668 -1.32838,3.24484 -2.005092,4.25885 -0.763241,1.14367 -0.323048,1.08581 1.240282,-0.16303 z m 138.136267,0.3294 c 0.55509,-0.35153 0.80979,-1.38505 0.43395,-1.76089 -0.0887,-0.0887 -0.65429,0.15471 -1.25677,0.54102 -0.78656,0.50434 -1.41159,0.69232 -2.21683,0.66675 -0.61679,-0.0196 -1.18936,0.0743 -1.27239,0.20864 -0.083,0.13434 -0.11417,0.24605 -0.0692,0.24824 0.045,0.002 0.55801,0.17694 1.14009,0.38833 1.13944,0.41379 2.29028,0.31008 3.24115,-0.29209 z m -15.54427,-0.86592 c 0.43316,-0.32415 0.63898,-0.7112 0.59635,-1.12142 -0.0358,-0.34453 -0.13959,-1.34787 -0.23062,-2.22964 -0.20506,-1.98644 0.41663,-5.8831 1.6649,-10.43532 0.49879,-1.81901 1.25621,-4.97417 1.68314,-7.01146 0.42693,-2.037294 0.89708,-4.120104 1.04478,-4.628464 0.14769,-0.50837 0.26853,-1.52348 0.26853,-2.25581 0,-1.30816 -0.0197,-1.34067 -1.12448,-1.85383 -1.42107,-0.66008 -2.04955,-1.83992 -2.05011,-3.84863 -2.6e-4,-1.4257 0.58978,-3.72738 1.13313,-4.41915 0.45313,-0.57691 -8e-4,-0.66272 -0.85064,-0.16078 -0.73112,0.43189 -0.81351,0.61248 -0.82658,1.81172 -0.008,0.73261 -0.22349,2.58217 -0.4789,4.11015 -0.39545,2.36576 -0.40963,2.81929 -0.0955,3.05546 0.27635,0.20775 0.36339,0.96037 0.34691,2.99966 -0.0237,2.92782 -0.57153,6.074624 -1.84757,10.611624 -0.42943,1.52686 -0.76004,2.78055 -0.73468,2.78597 0.0254,0.005 0.47269,0.20326 0.99406,0.43965 l 0.94794,0.4298 -0.2174,1.81131 c -0.25949,2.16209 -1.34434,4.51421 -2.89406,6.27478 -1.02899,1.169 -1.08118,1.30705 -0.91444,2.41896 0.29479,1.96578 1.86928,2.49955 3.58522,1.21542 z m -13.00887,-0.0618 c 0.46697,-0.29162 0.51017,-0.53565 0.38907,-2.19767 -0.16424,-2.25426 0.18596,-3.71246 2.83184,-11.7915 1.94522,-5.9396 2.76063,-9.331774 3.06235,-12.739554 0.15844,-1.78945 0.12161,-2.07086 -0.31791,-2.42904 -0.27341,-0.22281 -0.90025,-0.73524 -1.39298,-1.13872 -0.49273,-0.40348 -1.05827,-1.12229 -1.25677,-1.59735 -0.4871,-1.16581 -0.45528,-3.27999 0.0691,-4.59055 0.49352,-1.23344 0.35112,-1.54387 -0.49654,-1.08241 -1.59426,0.8679 -1.58916,0.85489 -1.16587,2.98094 0.21283,1.06896 0.4666,3.86102 0.56393,6.20458 0.20235,4.87186 -0.11849,7.432424 -1.5626,12.470804 l -0.85227,2.97349 0.61563,0.57836 c 1.46938,1.38041 0.30998,5.19398 -2.40007,7.89445 -1.29815,1.29356 -1.47969,1.60974 -1.63432,2.84627 -0.23548,1.88314 0.1105,2.29079 1.77676,2.09345 0.68495,-0.0811 1.48175,-0.29512 1.77065,-0.47555 z m 21.87241,-0.21532 c 2.00085,-1.28979 2.01674,-1.31831 1.93094,-3.46582 l -0.0789,-1.97365 -1.51926,2.03361 c -0.8356,1.11849 -1.63927,2.10779 -1.78594,2.19843 -0.14667,0.0907 -0.26667,0.51497 -0.26667,0.94295 0,0.93818 0.54473,1.02196 1.71979,0.26448 z m 17.53924,0.34412 c 0.33325,-0.0893 0.77963,-0.49824 0.99195,-0.90883 l 0.38604,-0.74652 -0.9173,0.38327 c -0.50452,0.21081 -1.51644,0.38328 -2.24872,0.38328 -0.93313,0 -1.33142,0.10553 -1.33142,0.35278 0,0.19403 0.0794,0.43215 0.17639,0.52916 0.22004,0.22004 2.13063,0.22449 2.94306,0.007 z m -68.88135,-0.87529 c 0.7374,-0.76968 0.74165,-0.7926 0.31408,-1.69363 -0.23838,-0.50237 -0.43343,-1.28235 -0.43343,-1.7333 0,-0.93986 0.0387,-0.92963 -1.732,-0.45807 -1.87026,0.49807 -2.3792,0.82121 -2.76666,1.75663 -0.44133,1.06545 -0.0773,1.88037 1.09863,2.45978 1.41387,0.69662 2.64559,0.58063 3.51938,-0.33141 z m 16.81399,-0.12979 c 0.6909,-0.25412 0.89904,-0.46734 0.81973,-0.83976 -0.0585,-0.27455 -0.1094,-1.45167 -0.11318,-2.61583 -0.008,-2.48361 0.62409,-4.62854 3.00205,-10.18646 2.48171,-5.80039 2.98987,-7.62048 3.01591,-10.802144 0.0197,-2.41238 -0.0377,-2.77635 -0.49029,-3.10817 -0.43109,-0.31603 -0.59948,-0.31944 -1.05834,-0.0214 -0.80262,0.52126 -1.97901,3.04441 -1.99292,4.27445 -0.0332,2.940024 -1.24722,7.485894 -3.19197,11.952584 -1.77954,4.08726 -3.07856,7.89303 -3.30054,9.66964 -0.15876,1.2707 -0.11685,1.51136 0.30602,1.75713 0.64453,0.37459 1.85523,0.34235 3.00353,-0.08 z m -103.716678,-0.1483 c 0,-0.14552 -0.185621,-0.26459 -0.412491,-0.26459 -0.22687,0 -0.338905,0.11907 -0.248968,0.26459 0.08994,0.14552 0.275559,0.26458 0.412491,0.26458 0.136933,0 0.248968,-0.11906 0.248968,-0.26458 z M 175.58904,120.9539 c 0.23554,-0.19548 0.18512,-0.50126 -0.20531,-1.24517 -0.41981,-0.79989 -0.4894,-1.31261 -0.36861,-2.7157 0.14666,-1.7036 1.01705,-4.68015 1.82594,-6.24437 0.5948,-1.15021 2.4903,-6.73047 3.08289,-9.07584 0.66508,-2.632304 1.13948,-6.230284 0.94077,-7.135014 -0.12159,-0.55359 -0.4599,-0.84937 -1.44986,-1.26762 -1.10788,-0.46807 -1.33163,-0.69095 -1.57556,-1.56944 -0.37081,-1.33545 -0.35662,-2.06293 0.0716,-3.66975 0.38871,-1.45874 1.07321,-2.92488 1.69849,-3.63802 0.642,-0.73222 -0.23323,-0.61064 -1.04942,0.14578 -0.50564,0.46861 -0.6954,0.9772 -0.82413,2.20879 -0.092,0.88001 -0.4796,2.93209 -0.86137,4.5602 -0.53407,2.27757 -0.62351,3.04528 -0.3879,3.32918 0.49546,0.59698 0.6285,3.0974 0.29118,5.472394 -0.28186,1.98452 -1.54208,7.3104 -2.00963,8.49304 -0.13932,0.35239 -0.0498,0.46302 0.37442,0.46302 0.50778,0 0.55719,0.14741 0.55433,1.65365 -0.006,3.0626 -0.98085,5.46883 -3.24575,8.01 -0.71095,0.79766 -1.24587,1.5906 -1.18871,1.76208 0.28157,0.84471 3.45722,1.18438 4.32668,0.46279 z m 17.56601,0.0215 c 1.28839,-0.65729 1.41148,-0.85912 1.03192,-1.69215 l -0.30513,-0.66969 -0.474,0.6026 c -0.52481,0.66717 -2.08683,1.22629 -3.42594,1.22629 -0.85344,0 -0.86098,0.0102 -0.39131,0.52917 0.62818,0.69413 2.20798,0.6958 3.56446,0.004 z m -175.998847,-1.05839 0.867706,-1.04507 -0.803386,-1.10905 C 15.267221,115.06644 14.240811,108.62535 14.808565,102.627 15.785021,92.310686 19.921805,81.019516 24.85307,75.210966 l 1.22501,-1.44295 -1.185471,0.6492 c -1.522524,0.83377 -4.847381,4.1264 -6.40615,6.34404 -3.711718,5.28064 -6.887565,13.7748 -8.029729,21.476424 -0.5283636,3.56276 -0.409431,10.87978 0.212045,13.0454 0.816017,2.84354 2.418941,5.07012 3.89993,5.41729 1.518965,0.35608 1.682565,0.30655 2.587498,-0.78336 z m 141.794397,0.61548 c 0.86527,-0.4106 1.89271,-1.52434 4.43293,-4.80528 0.90283,-1.16609 2.34323,-2.18633 2.63842,-1.86881 0.052,0.056 0.14359,1.55643 0.20346,3.33436 0.0599,1.77793 0.19843,3.32217 0.3079,3.43165 0.3765,0.3765 2.53312,-1.04063 4.38468,-2.8812 1.97057,-1.95889 3.14319,-3.95136 3.38456,-5.75089 0.13614,-1.01502 0.10636,-1.07487 -0.5349,-1.07487 -0.37349,0 -0.97807,-0.11368 -1.34352,-0.25262 -1.53437,-0.58337 -1.21965,-3.73777 1.27982,-12.827384 2.11344,-7.68574 2.82932,-11.07569 2.8491,-13.49132 0.013,-1.59184 -0.0633,-1.89619 -0.58065,-2.31511 -0.77411,-0.62683 -1.18805,-0.60579 -2.78598,0.14163 -3.61769,1.69214 -6.07461,6.91299 -4.27264,9.07919 1.08145,1.30004 1.30044,1.97292 1.2822,3.93965 -0.0464,5.005684 -2.26519,11.526734 -4.83227,14.202224 -1.31271,1.36815 -2.23684,1.61285 -3.04375,0.80594 -0.3985,-0.3985 -0.43352,-0.85369 -0.29005,-3.77031 0.17254,-3.50747 0.96997,-7.829104 2.27199,-12.312934 1.64246,-5.65623 2.01846,-8.95766 1.234,-10.83512 -0.6442,-1.54179 -2.22429,-1.90771 -4.10175,-0.9499 -1.18329,0.60367 -2.93878,2.50807 -3.61363,3.92018 -0.518,1.08389 -0.78836,3.45153 -0.45035,3.94395 0.11796,0.17185 0.80784,0.53414 1.53307,0.8051 l 1.3186,0.49265 -0.0385,3.42824 c -0.0355,3.16495 -0.13382,3.79398 -1.28002,8.190734 -2.45014,9.39848 -2.79735,10.88138 -3.09762,13.22945 -0.16749,1.30984 -0.22448,2.7005 -0.12664,3.09035 0.38421,1.53081 1.5431,1.92063 3.2715,1.10045 z m -12.19468,-0.60878 c 2.0055,-1.00215 4.4044,-3.40106 5.40655,-5.40655 1.0238,-2.0488 1.00393,-2.42753 -0.14732,-2.80748 -1.19218,-0.39345 -1.71519,-1.39912 -1.71519,-3.29809 0,-0.8106 0.64669,-4.83487 1.43708,-8.942834 2.43952,-12.67905 2.6763,-15.13251 1.61653,-16.74993 -0.35309,-0.53888 -0.63386,-0.64096 -1.76295,-0.64096 -1.69967,0 -2.9665,0.60052 -4.38093,2.07671 -1.17352,1.22474 -1.93681,2.9789 -1.93681,4.45106 0,0.73368 0.18403,1.00452 1.12448,1.65492 1.85021,1.27956 1.99712,1.48428 2.19358,3.05666 0.40556,3.24604 -0.5822,7.927084 -3.71197,17.591094 -1.90377,5.8784 -2.50574,8.49109 -2.16246,9.38565 0.26955,0.70243 2.25744,0.52022 4.03941,-0.37024 z m 40.36492,-0.21297 c 0.17804,-0.17804 0.10751,-0.55983 -0.21358,-1.15612 -0.83021,-1.54179 -0.60414,-4.07197 0.69534,-7.78228 0.60913,-1.7392 1.5191,-4.33991 2.02215,-5.77936 1.90944,-5.463754 3.05248,-11.681774 2.23976,-12.184064 -0.48463,-0.29952 -1.56562,0.5538 -2.43195,1.91977 -0.87167,1.37438 -1.01137,1.83127 -1.81581,5.938554 -0.30664,1.56567 -1.09639,4.52013 -1.755,6.56548 -0.6586,2.04534 -1.42823,4.92993 -1.71029,6.4102 -0.28207,1.48027 -0.69908,3.33203 -0.9267,4.11502 -0.22763,0.78299 -0.35255,1.5834 -0.27761,1.77869 0.30449,0.79348 3.42419,0.92361 4.17369,0.17411 z m -86.80737,-0.56199 1.21038,-0.57305 -0.26435,-1.45847 c -0.21122,-1.16528 -0.34816,-1.42522 -0.68122,-1.29307 -0.22927,0.091 -0.833579,0.22889 -1.342899,0.30649 -2.16533,0.32993 -3.11883,1.66139 -2.49628,3.48579 0.17295,0.50682 2.02898,0.26397 3.574369,-0.46769 z m 17.01901,0.26504 c 0.42745,-0.47233 0.42254,-0.54788 -0.0903,-1.38906 -0.59235,-0.97162 -0.7128,-2.66092 -0.27233,-3.81946 0.39763,-1.04584 0.16415,-1.05776 -0.97606,-0.0498 -0.55864,0.49384 -1.41093,1.17193 -1.89398,1.50687 -0.99334,0.68879 -1.47346,1.68881 -1.24597,2.5952 0.3572,1.42321 3.50223,2.23518 4.47863,1.15627 z m 17.41517,-0.61115 c 2.83547,-1.51129 5.99687,-5.10234 6.0215,-6.83985 0.003,-0.22749 -0.38832,-0.55239 -0.87994,-0.73016 -0.54631,-0.19755 -1.06891,-0.66038 -1.36366,-1.2077 -0.66321,-1.23152 -0.43788,-2.85667 1.05018,-7.57414 1.58973,-5.039814 1.94602,-6.627634 2.15532,-9.605144 0.39903,-5.67669 -1.95984,-10.60835 -5.2358,-10.94641 -1.38112,-0.14253 -2.95226,0.60461 -3.08088,1.46507 -0.0465,0.3111 -0.24508,0.56564 -0.44129,0.56564 -0.21246,0 -0.64693,0.88281 -1.07425,2.18281 -1.34143,4.08097 -2.37437,4.14306 -3.30092,0.19844 -0.73166,-3.1149 -1.6603,-4.49908 -3.01646,-4.49618 -2.45453,0.005 -5.33731,4.63654 -4.75338,7.63646 0.24114,1.23887 0.36957,1.35945 2.3521,2.20838 2.40935,1.03169 2.6484,7.35696 0.49736,13.160154 -0.3692,0.99604 -1.45506,3.10286 -2.41303,4.68181 -2.36541,3.89878 -3.24371,5.61117 -3.24371,6.32419 0,0.77918 1.28644,1.85524 2.48727,2.08052 1.8218,0.34177 2.98732,-0.80478 4.63556,-4.56014 1.09453,-2.49379 1.55347,-3.94055 3.60389,-11.36083 2.37889,-8.608984 3.302,-10.382694 5.40356,-10.382694 1.6079,0 2.47043,1.82232 2.44201,5.15938 -0.0268,3.14564 -0.94439,6.346164 -3.65228,12.738714 -2.34177,5.52824 -3.21273,9.04919 -2.43167,9.83025 0.60988,0.60988 2.55848,0.36688 4.23852,-0.52857 z m 45.98281,0.18284 c 0.99649,-0.51531 1.29652,-1.52966 2.65905,-8.99002 1.92206,-10.524024 4.36194,-17.126714 6.97882,-18.885754 1.18106,-0.7939 2.09295,-0.60696 2.69222,0.55191 0.35566,0.68775 0.40908,1.33887 0.28734,3.5019 -0.19949,3.5446 -1.02636,6.670634 -3.95713,14.960184 -1.82424,5.15977 -2.00578,6.32788 -1.13989,7.33454 0.53083,0.61713 0.8399,0.73525 1.92376,0.73525 1.97447,0 2.57895,-0.54214 3.35951,-3.01304 0.36324,-1.14985 0.97243,-3.74028 1.35377,-5.75651 1.49954,-7.92859 3.5327,-13.843404 5.74359,-16.709134 2.59186,-3.35954 5.03046,-2.67113 4.99913,1.41124 -0.0149,1.94424 -0.49784,3.49073 -2.66705,8.541004 -2.38755,5.55859 -3.2344,9.21336 -2.80237,12.09434 0.22371,1.4918 1.10935,2.50723 2.1835,2.50348 1.23258,-0.004 3.4564,-1.22401 4.9257,-2.70161 1.54803,-1.55678 2.31584,-2.96289 2.49064,-4.56122 l 0.11691,-1.06896 -1.27785,-0.39687 c -1.63106,-0.50658 -2.02046,-1.19567 -1.79416,-3.175 0.22089,-1.93205 1.13745,-4.60659 2.89506,-8.447814 2.2471,-4.91101 2.85258,-6.91566 2.88262,-9.54386 0.0338,-2.95608 -0.68278,-4.57899 -2.3468,-5.31506 -2.33209,-1.0316 -4.47335,0.27972 -7.28478,4.46124 -0.65485,0.97397 -1.52527,1.95147 -1.93427,2.17223 -0.69647,0.37591 -0.77377,0.36475 -1.21838,-0.17583 -0.29425,-0.35776 -0.5441,-1.2631 -0.65718,-2.38125 -0.34959,-3.4567 -1.02441,-4.68322 -2.55273,-4.63977 -1.75974,0.05 -3.34632,1.42824 -5.7595,5.0031 -1.01003,1.49625 -1.98197,2.46284 -2.47646,2.46284 -0.38191,0 -0.74439,-2.02531 -0.74584,-4.16719 -0.001,-1.82881 -0.0873,-2.26863 -0.53064,-2.71198 -0.66661,-0.66661 -1.1401,-0.66487 -2.53268,0.009 -2.10148,1.01731 -4.91926,4.57771 -5.43321,6.86513 -0.29747,1.32396 0.0746,2.38603 0.83594,2.38603 0.30584,0 0.8939,0.33783 1.3068,0.75073 1.05512,1.05512 1.23355,2.61532 0.71357,6.23947 -0.59316,4.134154 -1.55021,7.287314 -4.50584,14.845184 -0.51374,1.31368 -1.01562,3.00331 -1.1153,3.75473 -0.17804,1.34213 -0.16551,1.37581 0.71068,1.90998 1.05325,0.64212 2.59666,0.70393 3.67345,0.1471 z m 18.41989,-0.31114 0.82852,-0.37907 -0.52083,-1.07799 c -1.07521,-2.22541 -0.88402,-6.87174 0.44333,-10.77432 0.33483,-0.98443 1.41396,-3.67879 2.39807,-5.98747 1.45292,-3.408494 1.81347,-4.535664 1.91796,-5.995944 0.12458,-1.74125 0.10919,-1.79835 -0.48469,-1.79835 -0.38645,0 -1.0603,0.46617 -1.82149,1.26011 -1.11097,1.15877 -1.2425,1.44248 -1.6355,3.52788 -0.26753,1.41959 -0.99317,3.583844 -1.94013,5.786524 -1.14584,2.66529 -1.67042,4.32843 -2.16278,6.85701 -0.35751,1.83605 -0.77751,3.81452 -0.93332,4.39661 -0.60378,2.2555 -0.13092,4.10802 1.17954,4.62115 0.65544,0.25664 1.51829,0.11886 2.73132,-0.43614 z m -173.922376,8e-4 c 0.114525,-0.0705 -0.242663,-0.4582 -0.79375,-0.86155 -1.418389,-1.03812 -1.790941,-1.51681 -2.711471,-3.48394 -4.299945,-9.18877 -0.502193,-29.183744 7.608255,-40.057094 0.651264,-0.87312 1.316876,-1.76589 1.479137,-1.98393 0.162261,-0.21804 -0.181231,-0.0509 -0.763315,0.37142 -5.840129,4.23717 -10.857534,13.66378 -13.119058,24.64785 -0.793282,3.852914 -1.003702,11.746484 -0.387019,14.518354 1.164566,5.2345 3.5418,7.55572 7.288369,7.11662 0.654843,-0.0768 1.284327,-0.19723 1.398852,-0.26773 z m 23.771302,-0.54294 c 0.142838,-0.14284 -0.201811,-0.594 -0.854366,-1.11841 -1.372513,-1.10298 -2.852116,-4.08893 -3.06941,-6.1943 -0.08378,-0.81179 -0.236368,-1.42404 -0.339079,-1.36056 -0.102712,0.0635 -0.45298,1.04267 -0.778378,2.17598 -0.325401,1.13332 -0.831437,2.8089 -1.12453,3.72353 -0.598702,1.86831 -0.493421,2.18298 0.953538,2.85004 0.890489,0.41052 4.782383,0.35356 5.212225,-0.0763 z m 40.322725,-0.18988 c 0.50464,-0.21076 0.91754,-0.4436 0.91754,-0.51732 0,-0.0737 -0.28707,-0.55706 -0.63793,-1.07409 -1.50199,-2.2133 -1.44682,-5.61721 0.25532,-15.7522 0.50102,-2.983184 0.91113,-5.505244 0.91136,-5.604574 2.3e-4,-0.0993 -0.23162,-0.25425 -0.51522,-0.34426 -0.37575,-0.11926 -0.80639,0.12711 -1.5875,0.90821 -0.65101,0.65102 -1.31859,1.07187 -1.70025,1.07187 -0.73379,0 -0.60622,-0.47665 -1.91197,7.143754 -0.5753,3.3575 -0.98812,6.78788 -1.08356,9.00394 l -0.15418,3.57999 0.9281,0.98407 c 0.8383,0.88886 1.06031,0.98408 2.29442,0.98408 0.75148,0 1.77922,-0.17252 2.28387,-0.38337 z m -24.380867,-0.45809 c 1.408377,-0.40388 1.369748,-0.34159 0.722318,-1.16466 -0.374388,-0.47596 -0.559329,-1.09105 -0.559329,-1.86025 v -1.14917 l -1.563431,1.01049 c -0.859888,0.55577 -1.937509,1.16544 -2.394715,1.35482 -0.610912,0.25305 -0.810178,0.49041 -0.751673,0.89535 0.161721,1.11933 2.318123,1.55253 4.54683,0.91342 z m 40.911206,-0.38099 c 0.92137,-0.36866 1.04254,-0.50761 0.86525,-0.99218 -0.11339,-0.30992 -0.19557,-1.4285 -0.1826,-2.48573 0.0267,-2.17618 0.28125,-2.16949 -2.36367,-0.0621 -0.82189,0.65484 -1.50896,1.36922 -1.52682,1.5875 -0.17636,2.15511 -0.0735,2.38125 1.08344,2.38125 0.57914,0 1.53512,-0.19291 2.1244,-0.4287 z m -51.660095,-1.0388 c 0.196462,-0.062 -0.169095,-0.56781 -0.891857,-1.23403 -2.235348,-2.06047 -3.260815,-5.29118 -3.272274,-10.30921 l -0.0052,-2.29501 -1.838751,1.79906 c -1.011314,0.98948 -1.916059,2.10708 -2.01055,2.48355 -0.281189,1.12035 0.37868,5.1596 1.061456,6.49748 1.202862,2.35698 3.180635,3.55805 5.433679,3.29981 0.654844,-0.0751 1.340437,-0.18375 1.523539,-0.24155 z m 40.875946,-0.28413 c 0.58579,-0.17208 0.58235,-0.40158 -0.0179,-1.18915 -1.69625,-2.22581 -1.70144,-5.35143 -0.0257,-15.447664 1.16566,-7.02297 2.28043,-11.36362 3.58213,-13.94798 0.34572,-0.68639 0.62859,-1.31389 0.62859,-1.39444 0,-0.31309 -2.02099,0.91382 -2.67836,1.626 -0.60264,0.65287 -0.71386,1.05276 -0.84498,3.03809 -0.21357,3.23363 -1.08532,4.87026 -3.3076,6.20967 -0.0462,0.0279 -0.36494,1.5805 -0.70823,3.45029 -2.1845,11.898244 -2.26963,16.549654 -0.32022,17.497184 1.21242,0.58931 2.09532,0.62709 3.6922,0.158 z m 17.244899,-1.37102 c 3.18223,-1.66831 6.03404,-4.7887 5.09148,-5.57096 -0.17203,-0.14277 -0.64142,-0.34206 -1.04309,-0.44288 -0.98005,-0.24598 -1.71872,-1.24532 -1.91428,-2.58984 -0.0909,-0.62465 0.0777,-2.77531 0.38734,-4.94232 0.71121,-4.977424 1.62943,-12.629674 1.77789,-14.816674 0.0914,-1.34667 0.008,-1.91627 -0.38236,-2.62539 -0.56335,-1.02214 -1.94111,-1.87253 -3.03379,-1.87253 -0.59508,0 -0.73174,0.11806 -0.73174,0.63215 0,0.34768 -0.21574,0.89859 -0.47944,1.22424 -0.58487,0.72227 -1.07675,0.60497 -2.99428,-0.71406 -1.95179,-1.3426 -2.86457,-1.54121 -4.5343,-0.98661 -1.60274,0.53235 -3.5781,2.40513 -4.540889,4.30511 -1.8416,3.63423 -3.68681,12.06574 -4.66933,21.336054 -0.48078,4.53635 0.28457,6.39815 2.74414,6.67537 1.77909,0.20053 3.260629,-0.45069 5.938029,-2.61011 2.25887,-1.82185 3.3331,-2.3626 3.7886,-1.9071 0.31992,0.31991 0.36551,1.71332 0.12032,3.67758 -0.16913,1.35494 -0.12744,1.67499 0.2699,2.07233 0.63463,0.63463 1.8502,0.39059 4.2058,-0.84436 z m -9.55808,-8.30647 c -1.95273,-0.94345 -1.82075,-6.627724 0.29857,-12.858784 1.35454,-3.9825 3.54682,-6.11932 5.50847,-5.36911 1.56122,0.59707 2.2873,2.40524 2.30338,5.73614 0.0201,4.1603 -1.42525,8.329414 -3.77372,10.885364 -1.58473,1.72474 -3.00378,2.25038 -4.3367,1.60639 z m 2.5928,-2.4025 c 1.20047,-0.8046 2.71485,-3.10551 3.4345,-5.218284 0.77623,-2.2789 0.99198,-6.10466 0.42128,-7.47053 -0.69154,-1.65511 -2.35617,-1.56687 -3.50454,0.18577 -0.36312,0.55419 -0.38122,0.91372 -0.12815,2.54483 0.45032,2.90237 -0.16186,6.613154 -1.57856,9.568584 -0.45239,0.94375 -0.45286,0.99218 -0.01,0.99218 0.25632,0 0.87059,-0.27115 1.36506,-0.60255 z m -1.48389,-4.328524 c 0.2192,-0.84155 0.38677,-2.30876 0.37238,-3.26045 l -0.0262,-1.73035 -0.38415,1.19062 c -0.45475,1.40939 -1.15462,5.145124 -1.14007,6.085424 l 0.0102,0.66146 0.38461,-0.7083 c 0.21154,-0.38956 0.56396,-1.39684 0.78316,-2.238404 z M 70.636681,115.24813 c 0.77334,-0.15467 0.80506,-0.20165 0.42193,-0.625 -1.33064,-1.47034 -0.89025,-3.73739 1.59764,-8.22433 3.16646,-5.71076 4.24999,-8.623174 4.52032,-12.150094 0.19817,-2.58543 -0.0894,-3.31607 -1.46774,-3.72902 -1.60267,-0.48018 -2.21686,-1.29025 -2.34749,-3.09614 -0.0728,-1.00682 0.0295,-1.86103 0.30061,-2.50992 0.45921,-1.09904 0.3364,-1.19892 -0.59433,-0.48335 -0.6076,0.46714 -0.62127,0.54498 -0.31153,1.77505 0.17817,0.70756 0.31563,2.41983 0.30546,3.80504 -0.0102,1.3852 0.0539,3.51272 0.14231,4.72782 0.2167,2.97769 0.01,4.02414 -2.19057,11.071844 -0.2397,0.76783 -1.06529,2.20974 -1.86985,3.26576 -1.55903,2.04629 -2.709697,4.26113 -2.713817,5.22363 -0.0041,0.96405 1.939207,1.40228 4.207057,0.94871 z m -8.972142,-2.11809 c 1.578536,-0.77429 2.527044,-1.51944 4.637784,-3.64349 2.846098,-2.86404 3.828888,-4.4609 3.828888,-6.2213 0,-0.81487 -0.1172,-1.08058 -0.53512,-1.21322 -1.07255,-0.34042 -2.1673,0.19529 -4.184779,2.04778 -3.052329,2.80272 -5.485133,3.62045 -7.141078,2.40032 -1.020159,-0.75167 -1.7077,-2.96068 -1.4825,-4.76313 0.243776,-1.951114 0.915347,-2.459404 3.258841,-2.466534 2.526464,-0.008 4.909521,-0.40498 6.212523,-1.03575 1.751203,-0.84774 3.545363,-2.73817 4.488843,-4.72969 0.75854,-1.60113 0.83847,-2.0095 0.83847,-4.28341 0,-2.21797 -0.0872,-2.69113 -0.74161,-4.02376 -1.22465,-2.49387 -3.76327,-4.11164 -5.976073,-3.80834 -3.80487,0.52151 -7.533341,4.08311 -10.226821,9.76911 -3.987519,8.41774 -4.391977,18.515064 -0.873024,21.795104 1.850657,1.72501 4.612574,1.78668 7.895656,0.17631 z M 59.447437,96.453986 c -0.724599,-0.38616 -0.754912,-0.47367 -0.619287,-1.78776 0.189429,-1.83538 1.468364,-4.59128 2.802229,-6.03836 1.079368,-1.17098 2.751521,-1.9465 3.542504,-1.64298 1.142145,0.43829 1.345305,3.71065 0.361532,5.82332 -1.25638,2.6981 -4.36806,4.56183 -6.086978,3.64578 z m 3.378375,-2.90415 c 1.194392,-0.99253 2.010804,-2.45329 2.012373,-3.60061 7.94e-4,-0.54571 -0.06995,-0.99219 -0.157097,-0.99219 -0.569626,0 -2.044141,0.98875 -2.640488,1.7706 -0.65372,0.85707 -1.434394,2.86475 -1.434394,3.68886 0,0.47786 1.134867,0.0348 2.219606,-0.86666 z M 77.468501,112.6491 c 1.57731,-0.73435 2.26715,-1.66961 2.72453,-3.69381 3.71922,-16.459874 4.76956,-19.383204 7.02317,-19.547174 0.59205,-0.0431 0.85677,0.13009 1.2889,0.84316 0.2991,0.49356 0.87468,1.2503 1.27908,1.68166 0.64752,0.6907 0.85273,0.76269 1.71979,0.60328 1.86119,-0.34219 2.97135,-2.14572 2.96743,-4.82083 -0.003,-2.07543 -1.12211,-4.96961 -2.271,-5.87332 -1.85114,-1.45612 -3.92204,-0.0372 -6.02595,4.1289 -0.63822,1.26377 -1.31913,1.92773 -1.97695,1.92773 -0.1408,0 -0.33379,-0.74414 -0.42887,-1.65364 -0.46147,-4.41458 -0.76226,-4.96094 -2.73109,-4.96094 -1.78421,0 -5.4378,2.7732 -6.16156,4.67683 -0.54846,1.44256 -0.34242,1.87187 1.2745,2.65557 2.17556,1.05448 2.51806,1.81506 2.35751,5.23531 -0.20196,4.30235 -1.27281,7.449194 -4.54681,13.361464 -2.98039,5.38208 -2.93541,6.08778 0.38778,6.08283 1.27957,-0.002 2.09893,-0.17185 3.11954,-0.64702 z m 42.471679,-3.93506 c 2.52489,-3.80276 3.70713,-7.38038 3.74333,-11.327854 0.0286,-3.11958 -0.23218,-3.74246 -1.70211,-4.06531 -2.39853,-0.52681 -3.2878,-4.23098 -1.93211,-8.04803 0.25714,-0.72398 0.39,-1.39385 0.29524,-1.48861 -0.0948,-0.0948 -0.65636,0.0998 -1.24801,0.43231 -0.98033,0.55098 -1.07618,0.69999 -1.08087,1.68035 -0.003,0.59167 -0.17765,2.26639 -0.38848,3.72159 -0.53468,3.69037 -0.53569,3.6813 0.45977,4.11945 0.66837,0.29418 0.96398,0.67313 1.32721,1.70139 0.6777,1.91853 0.49163,6.638454 -0.37552,9.525674 -0.55024,1.83208 -0.58912,2.20636 -0.28856,2.77813 0.19105,0.36343 0.2912,1.04774 0.22255,1.52068 -0.0686,0.47294 -0.0896,0.8599 -0.0466,0.8599 0.043,0 0.49938,-0.63435 1.01417,-1.40967 z m 44.79395,-1.10095 c 1.8392,-1.95012 3.74217,-7.32228 4.01025,-11.321134 0.15286,-2.28018 0.14093,-2.34291 -0.65658,-3.45343 -0.44675,-0.62208 -0.9301,-1.54155 -1.07411,-2.04325 -0.14401,-0.50171 -0.27257,-0.68735 -0.2857,-0.41254 -0.0131,0.27481 -0.36875,1.70356 -0.79028,3.175 -0.42154,1.47144 -0.85233,3.56831 -0.95732,4.65972 -0.10499,1.0914 -0.53248,3.353594 -0.94997,5.027084 -0.79537,3.18818 -0.98077,5.29167 -0.46639,5.29167 0.16472,0 0.69126,-0.4154 1.1701,-0.92312 z m 8.71076,-0.0691 c 0.10179,-0.5457 0.52117,-2.06375 0.93195,-3.37344 0.75613,-2.41079 1.49512,-6.627774 1.27642,-7.283864 -0.14876,-0.44629 -2.51651,8.368614 -2.75602,10.260424 -0.20477,1.61735 0.25751,1.95235 0.54765,0.39688 z m -33.8121,0.14883 c -0.0845,-0.21107 -0.14716,-0.14838 -0.15986,0.15985 -0.0115,0.27891 0.0511,0.43518 0.13897,0.34727 0.0879,-0.0879 0.0973,-0.31613 0.0209,-0.50712 z m -21.83585,-3.56436 c 0.66668,-2.35594 0.92527,-6.042624 0.51175,-7.295624 -0.2787,-0.84446 -0.96201,-1.46907 -1.2701,-1.16099 -0.062,0.062 -0.39414,2.16169 -0.7381,4.665984 -0.62424,4.54492 -0.59146,5.60628 0.18185,5.88857 0.54368,0.19845 0.7645,-0.15394 1.3146,-2.09794 z m -86.263977,0.7697 c 1.827789,-1.91163 3.767519,-4.29948 3.492598,-4.29948 -0.597945,0 -2.72538,1.6366 -4.118692,3.16845 -1.189043,1.30726 -1.456396,1.75056 -1.224375,2.03013 0.435644,0.52492 0.535101,0.47659 1.850469,-0.8991 z m 3.719698,-0.52436 c 1.077423,-0.82166 2.92603,-2.85279 4.980628,-5.472414 0.378571,-0.48268 0.366368,-0.49007 -0.264584,-0.16022 -1.186066,0.62005 -6.807734,6.620014 -6.202622,6.620014 0.105514,0 0.774473,-0.44432 1.486578,-0.98738 z m 25.548511,-1.15785 c 1.668854,-1.27911 1.831861,-1.34489 3.044029,-1.22842 1.040371,0.1 1.328364,0.0341 1.534422,-0.35092 0.139517,-0.26068 0.253666,-0.54863 0.253666,-0.63988 0,-0.37994 -2.611421,0.26115 -3.836458,0.94183 -0.727604,0.40428 -1.828932,0.8681 -2.447396,1.0307 -0.618463,0.16261 -1.124479,0.44584 -1.124479,0.62941 0,0.29981 0.499914,0.96876 0.723969,0.96876 0.04893,0 0.882443,-0.60817 1.852247,-1.35148 z M 32.295789,99.864226 c 0,-0.0474 -0.400357,0.219134 -0.889683,0.592364 -0.489326,0.37323 -1.441826,0.86673 -2.116667,1.09667 -1.253093,0.42697 -1.343374,0.5681 -1.054227,1.64802 0.155017,0.57896 0.289235,0.49535 2.113053,-1.31629 1.071139,-1.06399 1.947524,-1.973334 1.947524,-2.020764 z m 39.140502,-0.49497 c 0.17026,-0.67618 0.3729,-2.01563 0.45029,-2.97656 l 0.14072,-1.74715 -0.70228,1.19063 c -0.84658,1.43526 -1.77528,2.46024 -3.13893,3.46437 l -1.01907,0.750404 1.28366,-0.145024 c 0.93198,-0.10529 1.42862,-0.0326 1.81282,0.265454 0.76789,0.59564 0.83184,0.55191 1.17279,-0.802124 z m -41.521753,-0.33625 c 0,-0.10504 -0.288332,-0.44169 -0.640736,-0.7481 -0.705247,-0.61321 -0.946764,-0.39218 -0.946764,0.86644 0,0.58071 0.05748,0.60601 0.79375,0.34935 0.436563,-0.15219 0.79375,-0.36265 0.79375,-0.46769 z m 21.725095,-4.33836 c 0.782378,-2.54391 3.136297,-7.45478 4.310864,-8.99355 1.51143,-1.98008 0.427334,-1.52578 -1.929347,0.80851 -2.048359,2.0289 -4.047387,5.00968 -4.957321,7.39195 -0.402958,1.05497 -0.397512,1.14423 0.113633,1.86207 0.295286,0.41469 0.690447,1.49746 0.878137,2.40616 l 0.341251,1.65219 0.329039,-1.61307 c 0.18097,-0.88719 0.592156,-2.46861 0.913744,-3.51426 z m -14.032151,3.61691 0.641432,-0.69961 -0.727604,0.46546 c -0.400183,0.256 -0.727605,0.57083 -0.727605,0.69961 0,0.35976 0.12024,0.29098 0.813777,-0.46546 z m -2.539508,-1.05451 c 0.293063,-0.11246 0.206295,-0.29748 -0.36489,-0.7781 -0.412157,-0.34681 -1.033113,-1.25839 -1.3799,-2.02573 -0.545375,-1.20677 -0.628703,-1.78819 -0.617056,-4.30558 0.01228,-2.65184 -0.123536,-3.2887 -0.704384,-3.30325 -0.436425,-0.0109 -2.880956,6.84914 -2.880956,8.0848 0,0.74209 1.561722,2.39796 2.436369,2.58324 0.66571,0.14102 2.901669,-0.0216 3.510817,-0.25538 z m 11.284482,-3.00674 c 0.814739,-0.002 0.971306,-0.18403 1.821153,-2.1183 0.351653,-0.80036 1.25824,-2.40771 2.014641,-3.57188 0.756402,-1.16417 1.330809,-2.16175 1.276467,-2.21685 -0.165423,-0.16772 -2.599272,1.48549 -3.345024,2.27214 -0.385041,0.40615 -1.006195,1.43537 -1.380347,2.28715 -0.37415,0.85177 -1.106112,2.12879 -1.626582,2.83781 l -0.946309,1.28913 0.745395,-0.38879 c 0.409969,-0.21383 1.058241,-0.38952 1.440606,-0.39041 z m 41.480465,-0.37151 c 0.57979,-0.61715 0.58374,-0.65866 0.14477,-1.52135 -0.57163,-1.12342 -0.49722,-1.06066 -1.01985,-0.86011 -0.3715,0.14256 -1.74538,2.40549 -1.74538,2.87483 0,0.0776 0.45549,0.14109 1.01221,0.14109 0.72611,0 1.18068,-0.17933 1.60825,-0.63446 z m 114.316399,-9.08893 c 0.59703,-0.98672 0.29838,-1.10201 -0.81007,-0.31271 -0.61283,0.43637 -0.76726,0.74446 -0.76257,1.52135 l 0.006,0.97417 0.52323,-0.66146 c 0.28778,-0.3638 0.75736,-1.04841 1.04352,-1.52135 z m -71.47041,0.49847 c 0.40688,-1.35803 0.40679,-1.35837 -0.35499,-1.35837 -0.70281,0 -0.76685,0.20066 -0.49609,1.55443 0.22044,1.10223 0.48002,1.04242 0.85108,-0.19606 z m 37.74257,-1.31366 c -0.0465,-0.0482 -0.33285,0.0453 -0.63636,0.20775 -0.4116,0.22028 -0.54879,0.54508 -0.53987,1.27821 l 0.012,0.98287 0.62441,-1.19062 c 0.34342,-0.65484 0.58636,-1.23004 0.53987,-1.27821 z m 22.22202,-0.26265 c -0.0427,-0.0471 -0.44595,0.10477 -0.89603,0.33752 -0.69138,0.35753 -0.81834,0.57529 -0.81834,1.40368 v 0.98049 l 0.89603,-1.31802 c 0.49282,-0.72491 0.86107,-1.35656 0.81834,-1.40367 z m -156.41524,0.61192 c 0.27222,-0.57085 0.808242,-1.10312 1.39051,-1.38079 0.889072,-0.42396 0.936765,-0.50948 0.773052,-1.38616 -0.09596,-0.51387 -0.220411,-0.98095 -0.276556,-1.03795 -0.151466,-0.15376 -1.068821,0.95891 -2.251726,2.73113 -0.781021,1.17013 -0.962147,1.62327 -0.712248,1.78189 0.524926,0.33319 0.60574,0.28005 1.076968,-0.70812 z m 51.503991,-0.98099 c 0.005,-0.10457 -0.16922,-0.1216 -0.3875,-0.0378 -0.21828,0.0838 -0.39266,0.46698 -0.3875,0.8516 l 0.009,0.69929 0.37812,-0.66146 c 0.20797,-0.3638 0.38235,-0.74701 0.3875,-0.85159 z m -44.727265,0.0305 c 1.124783,-1.84955 0.894299,-5.10172 -0.384305,-5.42263 -0.88818,-0.22292 -1.812536,0.044 -2.651649,0.76581 -0.655595,0.56392 -0.682688,0.67283 -0.410908,1.65176 0.16003,0.57642 0.292483,1.34569 0.294343,1.70949 0.0024,0.48612 0.300953,0.85322 1.125956,1.38487 0.617416,0.39788 1.21362,0.7253 1.324901,0.7276 0.111278,0.002 0.427027,-0.3653 0.701662,-0.8169 z m 100.581624,-2.76208 c 1.32121,-0.83404 1.4243,-1.09381 0.91644,-2.30929 -0.45998,-1.1009 -0.53714,-3.78015 -0.13901,-4.8273 0.26054,-0.68528 0.24798,-0.69626 -0.59531,-0.52042 -2.37225,0.49465 -4.43335,2.86274 -4.43335,5.09366 0,1.16081 0.28565,1.62746 1.57276,2.56928 1.13351,0.82943 1.35595,0.82894 2.67847,-0.006 z m 5.97014,-2.25924 c 1.03244,-0.63808 1.01062,-0.56737 0.48737,-1.57922 -0.717,-1.38654 -0.93425,-3.25276 -0.55077,-4.73114 0.39555,-1.52489 0.18466,-1.69571 -1.1053,-0.89525 -1.94892,1.20936 -2.96725,2.80322 -2.96725,4.64424 0,2.56854 2.06008,3.84433 4.13595,2.56137 z m 5.29106,-2.04003 c 1.81404,-0.99005 3.0084,-3.14561 3.0084,-5.42951 0,-1.75147 -0.51262,-2.3241 -2.10016,-2.34601 -1.23556,-0.017 -3.19358,1.03937 -4.03963,2.17951 -1.3088,1.76376 -1.37382,4.16968 -0.14795,5.47481 0.68134,0.7254 2.07772,0.77701 3.27934,0.1212 z"
       id="path4716"
       inkscape:connector-curvature="0" />
  </g>
</svg>
