<?xml version="1.0" encoding="UTF-8" standalone="no"?>
<svg
   xmlns:dc="http://purl.org/dc/elements/1.1/"
   xmlns:cc="http://creativecommons.org/ns#"
   xmlns:rdf="http://www.w3.org/1999/02/22-rdf-syntax-ns#"
   xmlns:svg="http://www.w3.org/2000/svg"
   xmlns="http://www.w3.org/2000/svg"
   xmlns:sodipodi="http://sodipodi.sourceforge.net/DTD/sodipodi-0.dtd"
   xmlns:inkscape="http://www.inkscape.org/namespaces/inkscape"
   viewBox="0 0 76.358002 62.187008"
   height="66.332809"
   width="81.448532"
   version="1.1"
   id="svg3602"
   inkscape:version="0.91 r13725"
   sodipodi:docname="blobs.svg">
  <metadata
     id="metadata3618">
    <rdf:RDF>
      <cc:Work
         rdf:about="">
        <dc:format>image/svg+xml</dc:format>
        <dc:type
           rdf:resource="http://purl.org/dc/dcmitype/StillImage" />
        <dc:title />
      </cc:Work>
    </rdf:RDF>
  </metadata>
  <defs
     id="defs3616" />
  <sodipodi:namedview
     pagecolor="#ffffff"
     bordercolor="#666666"
     borderopacity="1"
     objecttolerance="10"
     gridtolerance="10"
     guidetolerance="10"
     inkscape:pageopacity="0"
     inkscape:pageshadow="2"
     inkscape:window-width="1275"
     inkscape:window-height="844"
     id="namedview3614"
     showgrid="false"
     fit-margin-top="0"
     fit-margin-left="0"
     fit-margin-right="0"
     fit-margin-bottom="0"
     inkscape:zoom="1.5138889"
     inkscape:cx="251.85311"
     inkscape:cy="-128.80734"
     inkscape:window-x="0"
     inkscape:window-y="0"
     inkscape:window-maximized="0"
     inkscape:current-layer="svg3602" />
  <path
     d="m 177.74289,125.07988 c -4.4,10.1 -16.4,20.2 -26.8,25.3 -10.4,5.2 -22.4,-2.9 -26.80001,-15.2 -4.4,-11.6 7.60001,-20.4 26.80001,-25.3 19.2,-4.9 31.2,4.4 26.8,15.2 z"
     style="fill:#0091ff"
     id="path4490"
     inkscape:connector-curvature="0" />
  <path
     d="m 50.745754,127.93991 c 2.7,-7.09999 9.4,-15.69999 15.400001,-16.39999 5.9,-0.4 12.6,8.5 15.4,16.89999 2.7,8.4 -4.2,14.9 -15.4,14.2 -11.200001,-0.9 -18.100001,-7.6 -15.400001,-14.7 z"
     style="fill:#0091ff"
     id="path4492"
     inkscape:connector-curvature="0" />
  <path
     d="m 266.30339,65.77625 c -2.1,16.4 -15.3,27.2 -23.2,25.3 -8.1,-1.8 -12.6,-13 -14.8,-24.9 -1.9,-11.8 2.7,-22.7 14.8,-25.3 12,-2.800001 25.2,8.4 23.2,24.9 z"
     style="fill:#0091ff"
     id="path4494"
     inkscape:connector-curvature="0" />
  <path
     d="m 10.430062,123.87197 c -0.9999996,8.2 -9.79999957,10.3 -13.8,9.3 -4,-0.9 -6.5,-3 -7.6,-8.9 -1,-5.9 2.3,-8.5 8.4,-9.8 6.0000004,-1.4 14,1.1 13,9.4 z"
     style="fill:#0091ff"
     id="path4496"
     inkscape:connector-curvature="0" />
</svg>
