<?xml version="1.0" encoding="UTF-8" standalone="no"?>
<svg
   xmlns:dc="http://purl.org/dc/elements/1.1/"
   xmlns:cc="http://creativecommons.org/ns#"
   xmlns:rdf="http://www.w3.org/1999/02/22-rdf-syntax-ns#"
   xmlns:svg="http://www.w3.org/2000/svg"
   xmlns="http://www.w3.org/2000/svg"
   xmlns:sodipodi="http://sodipodi.sourceforge.net/DTD/sodipodi-0.dtd"
   xmlns:inkscape="http://www.inkscape.org/namespaces/inkscape"
   viewBox="0 0 665.18665 429.35779"
   height="429.35779"
   width="665.18665"
   version="1.1"
   id="svg3684"
   sodipodi:docname="newlogostuff.svg"
   inkscape:version="0.92.1 r15371">
  <sodipodi:namedview
     pagecolor="#ffffff"
     bordercolor="#666666"
     borderopacity="1"
     objecttolerance="10"
     gridtolerance="10"
     guidetolerance="10"
     inkscape:pageopacity="0"
     inkscape:pageshadow="2"
     inkscape:window-width="1920"
     inkscape:window-height="1017"
     id="namedview3686"
     showgrid="false"
     inkscape:zoom="0.98752136"
     inkscape:cx="392.98974"
     inkscape:cy="225.0958"
     inkscape:window-x="-8"
     inkscape:window-y="-8"
     inkscape:window-maximized="1"
     inkscape:current-layer="layer1"
     fit-margin-top="0"
     fit-margin-left="0"
     fit-margin-right="0"
     fit-margin-bottom="0" />
  <metadata
     id="metadata3396">
    <rdf:RDF>
      <cc:Work
         rdf:about="">
        <dc:format>image/svg+xml</dc:format>
        <dc:type
           rdf:resource="http://purl.org/dc/dcmitype/StillImage" />
        <dc:title></dc:title>
      </cc:Work>
    </rdf:RDF>
  </metadata>
  <defs
     id="defs3394">
    <filter
       inkscape:label="Opacity"
       id="filter3699-1"
       style="color-interpolation-filters:sRGB">
      <feGaussianBlur
         id="feGaussianBlur3701-8"
         stdDeviation="8.8900000000000006" />
      <feColorMatrix
         result="fbSourceGraphic"
         values="1 0 0 0 0 0 1 0 0 0 0 0 1 0 0 0 0 0 21 -9 "
         id="feColorMatrix3703-1" />
      <feColorMatrix
         id="feColorMatrix3735-9"
         values="0 0 0 -1 0 0 0 0 -1 0 0 0 0 -1 0 0 0 0 1 0"
         in="fbSourceGraphic"
         result="fbSourceGraphicAlpha" />
      <feColorMatrix
         in="fbSourceGraphic"
         result="colormatrix"
         values="1 0 0 0 0 0 1 0 0 0 0 0 1 0 0 0 0 0 5 -1 "
         id="feColorMatrix3737-9" />
      <feComposite
         k4="0"
         k3="0"
         k1="0"
         result="fbSourceGraphic"
         k2="1"
         operator="arithmetic"
         id="feComposite3739-5"
         in2="colormatrix" />
      <feColorMatrix
         id="feColorMatrix4521-2"
         values="0 0 0 -1 0 0 0 0 -1 0 0 0 0 -1 0 0 0 0 1 0"
         in="fbSourceGraphic"
         result="fbSourceGraphicAlpha" />
      <feColorMatrix
         in="fbSourceGraphic"
         result="colormatrix"
         values="1 0 0 0 0 0 1 0 0 0 0 0 1 0 0 0 0 0 5 -1 "
         id="feColorMatrix4523-0" />
      <feComposite
         k4="0"
         k3="0"
         k1="0"
         result="composite"
         k2="0.742188"
         operator="arithmetic"
         id="feComposite4525-8"
         in2="colormatrix" />
    </filter>
    <clipPath id="glassMask">
      <path
       id="logo"
       d="m 553.06726,431.9349 c -32.15821,-4.07054 -50.27553,-10.48207 -60.85529,-21.53603 -6.85685,-7.1642 -6.85685,-7.1642 -6.32528,-17.36174 0.7623,-14.62381 4.9275,-22.62437 26.62427,-51.14006 10.29339,-13.52844 20.95113,-28.23937 23.68385,-32.69098 7.92679,-12.91275 13.08689,-27.72964 13.80938,-39.65284 0.60902,-10.05065 -1.53918,-26.76177 -3.61935,-28.15536 -0.54782,-0.36701 -4.90458,5.71979 -9.68167,13.52624 -9.95986,16.27592 -21.53229,31.57809 -45.48114,60.13955 -31.5615,37.64033 -38.103,49.4478 -39.94003,72.09205 -1.72629,21.27939 -5.58247,28.93837 -17.56367,34.88423 -6.15521,3.0546 -8.92132,3.58784 -15.33908,2.95703 -16.25077,-1.59733 -32.53535,-15.02356 -36.59865,-30.17471 -3.94075,-14.6942 -0.38505,-27.55411 14.66443,-53.03705 8.64122,-14.63193 15.79411,-31.5181 18.37202,-43.37163 3.11522,-14.32411 2.28614,-44.86117 -1.32039,-48.63265 -0.55699,-0.58246 -2.0281,0.58749 -3.26917,2.59988 -1.24106,2.01239 -6.69939,10.2508 -12.12962,18.30756 -5.43022,8.05674 -10.9529,17.81507 -12.2726,21.68514 -1.31969,3.87006 -8.39751,23.47283 -15.72844,43.56171 -7.33095,20.08888 -15.63792,43.05315 -18.45997,51.0317 -5.99428,16.94721 -10.44373,22.15874 -21.33692,24.99146 -13.10904,3.40893 -31.9263,-1.08239 -43.88816,-10.47526 -6.81404,-5.35061 -9.46588,-5.57085 -10.5528,-0.87643 -0.45178,1.95119 -2.93227,5.76535 -5.51219,8.47592 -3.96863,4.1696 -5.9129,5.02414 -12.62929,5.55076 -10.56361,0.82828 -18.5874,-1.67849 -22.8182,-7.12879 -3.95608,-5.09641 -7.78284,-21.33581 -7.78284,-33.02764 0,-9.78684 -1.22568,-8.50229 -6.92719,7.2599 -7.89822,21.83518 -17.44388,30.20951 -35.78968,31.39801 -12.62957,0.8182 -19.85908,-2.43178 -24.87904,-11.18423 -2.8223,-4.92079 -3.21537,-7.38898 -3.09382,-19.42709 0.0766,-7.58458 -0.13176,-13.79014 -0.46307,-13.79014 -0.33127,0 -4.41673,4.06859 -9.07881,9.04131 -4.66208,4.97272 -13.83301,12.95112 -20.37984,17.72978 -20.02673,14.6179 -36.626483,19.71861 -65.114603,20.00819 -16.96813,0.17249 -18.27865,-0.0309 -25.71932,-3.99167 -6.8145,-3.62741 -8.33045,-5.25965 -11.58786,-12.47672 -3.44389,-7.63022 -3.61664,-8.8345 -2.13102,-14.85559 1.68494,-6.82888 17.2897,-45.04956 26.54484,-65.01617 6.89169,-14.86784 11.91269,-31.6357 13.03789,-43.5407 2.23778,-23.67639 -8.53369,-44.07181 -34.52752,-65.37667 -14.71504,-12.06061 -18.18141,-21.1594 -22.8306997,-59.92775 -1.97458,-16.46514 -0.88462,-49.11793 2.18962,-65.596336 C 17.058497,27.419404 37.326277,-0.5275708 64.280707,4.873704 c 22.28856,4.46631 38.396693,20.33086 37.416763,36.85099 -0.36403,6.13703 -1.04267,7.57907 -4.883043,10.37592 -4.98156,3.62794 -3.75156,5.05019 4.367513,5.05019 2.47275,0 6.44494,0.73649 8.82711,1.63667 4.32389,1.6339 4.33119,1.65495 4.33119,12.50524 0,7.16958 -1.17019,15.24578 -3.4383,23.729896 -4.31031,16.12316 -4.4354,19.45211 -0.54032,14.37864 5.47942,-7.13709 13.59955,-23.753076 15.526,-31.770326 2.97143,-12.36621 1.13699,-18.69458 -10.2149,-35.23895 -11.16843,-16.27702 -13.90844,-23.80418 -10.83357,-29.76105 2.66163,-5.15628 9.26835,-7.47152 21.61552,-7.57489 20.47303,-0.17138 34.37551,3.78842 43.94475,12.51662 5.31583,4.84864 6.07933,4.75389 8.58085,-1.06496 2.50607,-5.82944 8.90889,-8.27995 22.00511,-8.42188 15.07072,-0.16332 31.2569,6.05102 44.17363,16.95951 12.81882,10.82583 16.34266,25.94221 8.89232,38.14596 -4.05025,6.63434 -4.02893,6.01351 -0.7906,23.03062 1.60524,8.435376 1.03415,13.009446 -3.03134,24.279496 -1.56349,4.33422 -2.53757,8.21119 -2.1646,8.61548 1.02599,1.11216 16.11858,-11.59109 27.69733,-23.31252 11.6257,-11.768956 15.99437,-19.987836 15.99437,-30.090566 0,-5.46831 -1.56493,-10.12919 -7.56426,-22.52887 -8.2243,-16.99834 -9.06331,-21.67982 -4.72775,-26.3795 2.68683,-2.91249 4.12002,-3.05013 27.16257,-2.60894 22.76311,0.43586 24.76337,0.70523 31.13241,4.19284 3.7435,2.04989 8.67638,6.28066 10.96198,9.4017 3.52119,4.80827 4.2375,7.24528 4.69191,15.96245 0.87681,16.82094 -5.64941,36.46637 -22.67887,68.268506 -4.96411,9.27034 -8.66573,17.24526 -8.22588,17.72205 1.0825,1.17343 18.79059,-14.53669 29.23137,-25.93323 10.58166,-11.55034 15.65911,-22.104226 15.65911,-32.548746 0,-4.38933 -2.05738,-15.24476 -4.81362,-25.39821 -2.64749,-9.75287 -4.81362,-19.15345 -4.81362,-20.89021 0,-15.5153 12.78822,-20.02993 26.90802,-9.49938 11.53607,8.60361 19.77118,27.90509 20.27134,47.51201 0.14805,5.80367 0.81287,10.5547 1.47738,10.55786 0.66933,0.002 0.80635,-5.47988 0.30719,-12.29355 -2.80917,-38.34754 -2.81842,-37.85725 0.7882,-41.76675 7.46161,-8.08829 21.1737,-5.98541 29.66648,4.54965 3.94724,4.89646 4.62698,5.24373 5.87544,3.00169 5.73667,-10.30213 17.21603,-12.24296 32.57073,-5.50675 3.84188,1.68545 4.73735,1.60062 7.04985,-0.66793 5.5806,-5.47453 18.92188,-4.44961 24.18809,1.8582 3.51393,4.20896 5.29711,19.56229 3.51163,30.23553 -1.80532,10.79193 -5.77519,20.86419 -15.20138,38.56865 -3.85702,7.244326 -6.60938,13.879026 -6.11635,14.743756 2.87711,5.04624 12.74484,-2.25365 17.8719,-13.22116 4.91637,-10.516796 7.49923,-21.679456 9.67712,-41.822686 2.18506,-20.20968 5.37463,-29.56831 11.23401,-32.96221 4.67218,-2.70624 17.35899,-2.60895 20.43317,0.15667 2.07276,1.86472 2.66825,1.68146 5.09252,-1.56708 4.66198,-6.24712 9.57495,-8.87632 16.60605,-8.88678 11.51341,-0.0172 19.5285,7.23197 23.06607,20.86174 0.9577,3.68979 2.15418,7.23587 2.65887,7.88017 0.50469,0.64431 3.19105,-2.82113 5.96969,-7.70097 7.25857,-12.74745 17.32404,-22.12221 25.11123,-23.38806 9.65912,-1.57011 15.82654,0.0993 20.31538,5.4989 3.62177,4.35665 3.89242,5.45633 3.22305,13.09651 -0.74879,8.54697 -3.77228,19.4258 -12.67646,45.61116 -4.3813,12.88444 -4.95302,16.0097 -4.21158,23.022056 1.1348,10.73262 6.83697,34.89223 11.19496,47.43203 10.03649,28.87942 12.95666,39.88258 12.93325,48.73219 -0.0555,20.96679 -7.43362,42.60567 -15.82262,46.40521 -8.85541,4.01077 -15.57621,2.07936 -23.26359,-6.68543 -5.03246,-5.73777 -10.54247,-6.07905 -15.27755,-0.94627 -6.53364,7.08234 -2.69308,11.24895 10.3687,11.24895 9.49262,0 11.58645,2.66034 10.43709,13.26094 -1.06119,9.78736 -3.43847,13.05935 -10.99062,15.127 -14.44021,3.95345 -23.36307,11.53349 -22.5472,19.15397 0.38837,3.62734 0.8369,3.86217 6.60559,3.45835 6.97602,-0.48834 12.23986,-3.80244 23.39997,-14.73263 10.95562,-10.7299 13.68828,-12.41442 20.13909,-12.41442 7.67318,0 12.2017,2.01559 15.02587,6.6878 1.27635,2.11158 4.4032,13.67784 6.94852,25.70278 4.13988,19.5581 4.62787,24.19699 4.62787,43.9925 0,12.17092 -0.66362,28.58022 -1.47473,36.4651 -3.43913,33.43266 -13.92259,45.84971 -45.28615,53.63882 -8.66491,2.15194 -56.32003,3.96444 -67.39067,2.56313 z M 253.13356,314.31827 c 11.93815,-17.68742 15.28203,-25.18841 12.52236,-28.09024 -2.69134,-2.82997 -11.65881,9.71611 -20.0498,28.051 -7.58154,16.56616 -9.49409,23.02496 -5.51412,18.62132 1.08513,-1.20065 6.95384,-9.56259 13.04156,-18.58208 z m 71.64333,-8.11134 c 22.32841,-19.07877 30.99316,-32.92455 30.84309,-49.28546 -0.0758,-8.2654 -1.04229,-11.95282 -6.57234,-25.0761 -3.56588,-8.46214 -6.86299,-18.52521 -7.32688,-22.36239 -0.4639,-3.83716 -1.99333,-9.46569 -3.39874,-12.50786 -1.40542,-3.04217 -2.55529,-7.53095 -2.55529,-9.97508 0,-2.44415 -0.5407,-4.80614 -1.20154,-5.24885 -2.14829,-1.43922 -8.66298,20.39596 -9.87825,33.10871 -1.38222,14.45951 -4.95594,22.64346 -15.47346,35.43491 -6.74667,8.20534 -6.89324,8.57745 -5.17008,13.1263 8.04097,21.22657 8.63705,23.87386 7.76802,34.49807 -0.46949,5.73968 -1.23256,12.69886 -1.69568,15.46484 -1.03116,6.15839 -0.83105,6.06042 14.66115,-7.17709 z m 132.44268,1.28164 c 10.8438,-7.78587 18.22577,-20.17794 21.52428,-36.13273 0.81124,-3.92392 2.36241,-15.65332 3.44706,-26.06534 1.08464,-10.41202 2.39407,-21.13334 2.90984,-23.82513 0.93775,-4.89416 0.93775,-4.89416 -5.08832,-3.97547 -9.74846,1.48617 -9.46436,1.0952 -9.46436,13.02474 0,14.66206 -2.60304,23.52125 -13.67254,46.53298 -11.25215,23.39145 -13.39719,29.77584 -11.03904,32.85587 2.39592,3.12936 4.19196,2.74832 11.38308,-2.41492 z M 212.20165,284.16506 c 11.14425,-17.55798 13.62219,-33.9123 7.2413,-47.79249 -3.59468,-7.81939 -21.19426,-27.15753 -24.716,-27.15753 -0.98871,0 -3.95765,-2.20825 -6.59766,-4.9072 -4.33863,-4.43551 -4.89393,-5.94022 -5.7769,-15.65367 -0.5373,-5.91056 -1.36111,-10.74631 -1.83068,-10.74612 -1.02091,4.2e-4 -9.81734,19.55529 -9.73819,21.64847 0.0304,0.80243 3.21978,4.14247 7.08768,7.42228 9.44911,8.01245 20.94348,23.2688 26.14854,34.70666 5.24501,11.52565 6.50801,26.15084 3.47219,40.20734 -1.10679,5.12472 -1.50605,9.31767 -0.88722,9.31767 0.61883,0 3.13745,-3.17044 5.59694,-7.04541 z m -78.88246,-14.44437 c 6.01573,-3.41627 12.31216,-11.60811 13.88448,-18.06411 2.80917,-11.53461 -2.93114,-24.11916 -14.29437,-31.33774 -8.03692,-5.1055 -12.4922,-4.52617 -12.07175,1.56974 3.05716,44.32417 3.87711,49.94115 7.29015,49.94115 0.81271,0 3.14887,-0.94907 5.19148,-2.10904 z m 140.16595,-30.54722 c 3.83376,-6.16671 3.85757,-7.0524 0.35694,-13.27636 -4.42382,-7.86532 -18.58213,-12.46254 -15.7548,-5.1156 0.9431,2.45074 5.84556,18.18559 6.99779,22.46001 0.89066,3.30412 5.07741,1.27654 8.40007,-4.06805 z m 298.56153,-51.12816 c 0.90771,-0.98394 1.65039,-3.62745 1.65039,-5.87445 0,-5.93474 6.13916,-23.52446 14.62218,-41.89495 4.06737,-8.80816 8.93969,-21.00213 10.82737,-27.09773 3.84182,-12.40576 4.60701,-24.720036 1.53604,-24.720036 -2.95723,0 -6.29461,10.830636 -9.87683,32.052756 -1.24566,7.37959 -2.89532,14.75918 -3.6659,16.39908 -4.48087,9.5358 -15.08279,15.68042 -22.07964,12.79682 -3.99027,-1.64452 -6.8364,-9.13556 -5.63715,-14.83705 0.45384,-2.15769 3.23225,-11.1317 6.17423,-19.94227 5.77729,-17.30163 6.33036,-20.50603 3.53933,-20.50603 -4.96934,0 -13.3494,27.28184 -13.27081,43.20398 0.0988,20.01695 7.60094,52.20887 12.16696,52.20887 1.2999,0 3.10612,-0.80504 4.01383,-1.78899 z m -318.17021,-8.54377 c 0.4352,-0.7633 0.16227,-1.8092 -0.60649,-2.32423 -0.76876,-0.51501 -1.39775,0.10937 -1.39775,1.38782 0,2.61867 0.82528,3.00425 2.00424,0.93641 z m 270.84603,-53.52311 c 6.35253,-10.52211 12.77704,-21.75922 14.27668,-24.97134 4.43239,-9.493836 7.51461,-28.948026 4.58639,-28.948026 -1.62198,0 -14.92583,25.386506 -22.65683,43.233946 -6.74969,15.58204 -11.07124,29.81652 -9.0522,29.81652 0.71275,0 6.49344,-8.609 12.84597,-19.1311 z m -107.7998,-9.0156 c 16.00274,-17.53042 21.08297,-26.530936 23.55234,-41.727126 1.18637,-7.30082 1.14438,-9.76242 -0.18977,-11.12155 -1.31233,-1.3369 -1.86316,-1.30198 -2.3533,0.1492 -1.99216,5.89827 -8.97049,18.03364 -23.76961,41.335516 -9.1402,14.39168 -16.99657,27.2345 -17.4586,28.53962 -1.78631,5.04602 5.87387,-1.4612 20.21894,-17.17566 z m -48.95048,-1.95267 c 2.60117,-4.86965 2.60102,-4.90173 -0.011,-2.42157 -1.4559,1.38243 -5.30797,6.7494 -8.56016,11.92661 -5.91309,9.41313 -5.91309,9.41313 0.011,2.42156 3.25823,-3.84536 7.11029,-9.21233 8.56016,-11.9266 z m -75.47495,4.5552 c 10.99433,-10.50164 13.62061,-13.34765 18.85754,-20.43523 4.90678,-6.64076 4.92567,-9.524086 0.0583,-8.907476 -2.81292,0.35634 -6.48197,4.118336 -14.99996,15.379986 -18.74989,24.78924 -20.0304,29.35504 -3.91594,13.96272 z m 164.35147,-6.7023 c 9.06132,-12.36038 16.8775,-27.660306 16.14956,-31.612306 -0.82508,-4.47942 -27.20598,36.433256 -27.20598,42.192246 0,2.93325 3.85251,-0.75322 11.05642,-10.57995 z m -240.1643,-3.36038 c 4.63364,-6.84242 6.47682,-11.8205 3.68384,-9.94936 -1.63992,1.09863 -9.75565,14.40514 -9.75565,15.99528 0,2.35865 1.16761,1.19602 6.07181,-6.04592 z M 196.14426,84.043334 c 1.10874,-2.32415 2.63873,-7.23829 3.39995,-10.92031 1.82854,-8.84463 -1.23639,-20.26609 -7.39233,-27.54754 -4.53216,-5.3608 -4.53216,-5.3608 -6.45464,-0.99251 -1.43854,3.26866 -3.02787,4.48449 -6.31367,4.82988 -4.25737,0.4475 -4.40379,0.69743 -4.80406,8.19954 -0.37391,7.00786 -0.73727,7.77732 -3.85116,8.15531 -7.32059,0.88862 -9.67101,1.99618 -11.83551,5.57707 -1.80716,2.9897 -1.91144,4.14399 -0.53666,5.93964 2.80506,3.66375 6.20812,2.59136 14.21632,-4.47994 8.90417,-7.86245 13.15873,-8.50201 17.42726,-2.6197 2.54184,3.50282 2.83494,5.23652 2.04456,12.09379 -1.00536,8.72249 0.47644,9.36032 4.09994,1.76477 z m -125.266983,2.72206 c 6.35931,-3.14085 5.50338,-10.23386 -1.23495,-10.23386 -4.56588,0 -6.6773,-3.6144 -5.74589,-9.836 1.17394,-7.84172 3.08807,-9.54473 10.72791,-9.54473 7.37516,0 8.48464,-1.44725 3.37978,-4.40873 -2.04244,-1.18489 -4.30079,-4.8255 -5.84511,-9.42267 -1.38418,-4.12046 -3.63725,-8.22872 -5.00683,-9.12948 -3.84328,-2.5277 -8.39991,4.33301 -11.24959,16.938 -4.01819,17.77364 -1.26866,30.45771 7.68337,35.44471 4.01583,2.23713 3.19589,2.21546 7.29131,0.19276 z M 230.40761,56.283454 c 1.56674,-4.42575 0.83762,-9.16246 -2.01566,-13.09445 -3.27095,-4.50757 -7.48331,-5.37553 -6.40228,-1.31917 0.3824,1.43492 1.5113,5.79558 2.50862,9.69037 1.81929,7.10463 4.35018,9.12755 5.90932,4.72325 z m 94.7409,0.49464 c 0.89267,-2.71119 -3.00906,-10.35574 -4.93481,-9.66867 -1.86211,0.66435 -2.91906,6.21614 -1.7904,9.40439 0.92801,2.62144 5.88498,2.81624 6.72521,0.26428 z M 166.52713,41.398814 c -3.1885,-4.16455 -9.6719,-7.08067 -11.42916,-5.14063 -2.24861,2.48254 3.81224,7.47518 9.07455,7.47518 3.60335,0 3.90955,-0.30359 2.35461,-2.33455 z"
       inkscape:connector-curvature="0" />
    </clipPath>
  </defs>
  <g
     inkscape:groupmode="layer"
     id="layer1"
     inkscape:label="og">
     <use xlink:href="#logo" style="display:inline;fill:#ff6600;stroke:#ff6600;stroke-width:1.14552689" />
  </g>
  <g
     inkscape:groupmode="layer"
     id="layer3"
     inkscape:label="blobs"
     style="filter:url(#filter3699-1)"
     clip-path="url(#glassMask)"
    >
    <path
       d="m 558.27411,109.00496 c -1,8.2 -9.8,10.3 -13.8,9.3 -4,-0.9 -6.5,-3 -7.6,-8.9 -1,-5.9 2.3,-8.5 8.4,-9.800001 6,-1.4 14,1.100001 13,9.400001 z"
       style="fill:#0091ff"
       id="path4496"
       inkscape:connector-curvature="0" />
    <path
       d="m 450.19573,111.60081 c 2.7,-7.09999 9.4,-15.699993 15.4,-16.399993 5.9,-0.4 12.6,8.500003 15.4,16.899993 2.7,8.4 -4.2,14.9 -15.4,14.2 -11.2,-0.9 -18.1,-7.6 -15.4,-14.7 z"
       style="fill:#0091ff"
       id="path4492"
       inkscape:connector-curvature="0" />
    <path
       d="m 384.10066,90.777506 c -1,8.2 -9.8,10.300004 -13.8,9.300004 -4,-0.900004 -6.5,-3.000004 -7.6,-8.900004 -1,-5.9 2.3,-8.5 8.4,-9.8 6,-1.4 14,1.1 13,9.4 z"
       style="fill:#0091ff"
       id="path4822"
       inkscape:connector-curvature="0" />
    <path
       d="m 265.89592,81.22172 c 2.7,-7.09999 9.4,-15.69999 15.4,-16.39999 5.9,-0.4 12.6,8.5 15.4,16.89999 2.7,8.4 -4.2,14.9 -15.4,14.2 -11.2,-0.9 -18.1,-7.6 -15.4,-14.7 z"
       style="fill:#0091ff"
       id="path4824"
       inkscape:connector-curvature="0" />
    <path
       d="m 225.11675,93.81541 c -1,8.2 -9.8,10.3 -13.8,9.3 -4,-0.9 -6.5,-3 -7.6,-8.9 -1,-5.9 2.3,-8.5 8.4,-9.8 6,-1.4 14,1.1 13,9.4 z"
       style="fill:#0091ff"
       id="path4826"
       inkscape:connector-curvature="0" />
    <path
       d="m 101.84883,97.423896 c 2.7,-7.09999 9.4,-15.69999 15.4,-16.39999 5.9,-0.4 12.6,8.5 15.4,16.89999 2.7,8.400004 -4.2,14.900004 -15.4,14.200004 -11.2,-0.9 -18.1,-7.6 -15.4,-14.700004 z"
       style="fill:#0091ff"
       id="path4828"
       inkscape:connector-curvature="0" />
  </g>
</svg>
